<svg xmlns="http://www.w3.org/2000/svg" version="1.1" xmlns:xlink="http://www.w3.org/1999/xlink" xml:space="preserve" width="256px" height="256px" style="shape-rendering:geometricPrecision; text-rendering:geometricPrecision; image-rendering:optimizeQuality; fill-rule:evenodd; clip-rule:evenodd" viewBox="0 0 186.27 186.27" xmlns:xodm="http://www.corel.com/coreldraw/odm/2003"><metadata><rdf:RDF xmlns:rdf="http://www.w3.org/1999/02/22-rdf-syntax-ns#" xmlns:dc="http://purl.org/dc/elements/1.1/"><rdf:Description><dc:creator>RealFaviconGenerator</dc:creator><dc:source>https://realfavicongenerator.net</dc:source></rdf:Description></rdf:RDF></metadata><defs>
  <style type="text/css">
   
    .fil1 {fill:none}
    .fil0 {fill:#C5A573}
   
  </style>
 </defs><g id="Camada_x0020_1">
  <metadata id="CorelCorpID_0Corel-Layer"></metadata>
  <path class="fil0" d="M90.38 30.85c1.29,-11.28 -4.37,-10.7 -4.26,-16.05 0.08,-3.79 3.19,-4.91 6.06,-10.12 -1.49,2.83 -2.31,5.43 -2.91,7.59 -1.34,4.86 7.62,7.56 1.11,18.58zm0.48 24.66l-9.23 0.05c-1.29,29.91 -2.39,59.95 -3.31,89.86 -20.02,-2.09 -32.28,-10.12 -43.06,-21.12l0.03 0.13 0.02 0.01c12.99,32.47 44.73,20.45 55.78,51.74 -12.67,-20.39 -48.05,-21.48 -55.6,-50.88 7.85,33.92 46.07,35.17 57.64,58.68 6.62,-19.5 50.66,-25.25 57.88,-59.68 -10.78,11 -23.04,19.03 -43.06,21.12 -0.92,-29.91 -2.02,-59.95 -3.31,-89.86l-9.23 -0.05c-0.71,37.48 -1.22,74.74 -2.24,112.29l-0.03 -0.24 0 -0.03 0 -0.82 0 0.5 -0.01 -0.5 0 0.82 0 0.03c-0.01,0.16 -0.02,0.25 -0.02,0.24 -1.02,-37.55 -1.54,-74.81 -2.25,-112.29zm-12.35 -7.72c-1.02,0.29 -1.74,1.01 -1.74,1.85 0,1.1 0.98,1.89 2.76,1.99 1.77,0.1 16.63,0.38 16.92,0.32 -6.39,-0.34 -15.66,-0.42 -17.85,-1.45 -1.14,-0.53 -1.14,-1.96 -0.09,-2.71zm0.72 -11.31c-0.09,0.01 11.9,-5.16 26.9,-0.15 -13.75,-1.4 -26.81,0.15 -26.9,0.15zm-57.45 3.6c12.39,11.2 20.96,9 43.57,3.59 -17.02,4.59 -28.5,12.11 -43.57,-3.59zm28.93 71.33c-2.59,1.22 -5.87,1.93 -9.6,1.93 -10.42,0 -20.34,-5.56 -22.18,-12.44 -0.12,-0.48 -0.21,-0.95 -0.26,-1.42 3.07,7.17 13.75,12.76 24.93,12.76 2.58,0 4.97,-0.29 7.11,-0.83zm95.18 -59.1l-17.32 46.17 34.88 0.01 -17.56 -46.18zm-1.97 -1.79c-4.29,0.05 -24.97,-6.12 -30.69,-7.61 -2.95,-0.76 -7.3,-2.39 -7.05,3.79 6.17,-0.26 6.58,6.49 -0.06,6.21l-12.98 -0.12 -12.99 0.12c-6.64,0.28 -6.23,-6.47 -0.07,-6.21 0.26,-6.18 -4.09,-4.55 -7.04,-3.79 -5.72,1.49 -26.39,7.66 -30.69,7.61l18.56 47.98 4.22 -0.01c-14.04,28.59 -45.02,15.92 -50.34,0.02l4.35 -0.01 19.26 -47.95c-8.51,-1.22 -15.08,-7.47 -18.12,-11.59 12.41,6.2 15.59,8.07 31.74,2.14 16.14,-5.93 20.62,-6.72 35.93,-8.81 1.4,-11.54 -4.35,-10.9 -4.23,-16.29 0.11,-4.87 6.71,-7.81 9.41,-13.71l0.01 0 0 0c2.7,5.9 9.3,8.84 9.41,13.71 0.12,5.39 -5.63,4.75 -4.23,16.29 15.31,2.09 19.78,2.88 35.93,8.81 16.15,5.93 19.33,4.06 31.74,-2.14 -3.05,4.12 -9.61,10.37 -18.12,11.59l19.26 47.95 4.35 0.01c-5.32,15.9 -36.3,28.57 -50.34,-0.02l4.22 0.01 18.56 -47.98zm-103.54 1.79l17.32 46.17 -34.88 0.01 17.56 -46.18z"></path>
  <rect class="fil1" width="186.27" height="186.27"></rect>
 </g></svg>