<?xml version="1.0" encoding="UTF-8"?>
<!DOCTYPE svg PUBLIC "-//W3C//DTD SVG 1.1//EN" "http://www.w3.org/Graphics/SVG/1.1/DTD/svg11.dtd">
<!-- Creator: CorelDRAW 2026 -->
<svg xmlns="http://www.w3.org/2000/svg" xml:space="preserve" width="1295px" height="1259px" version="1.1" style="shape-rendering:geometricPrecision; text-rendering:geometricPrecision; image-rendering:optimizeQuality; fill-rule:evenodd; clip-rule:evenodd"
viewBox="0 0 271.69 264.32"
 xmlns:xlink="http://www.w3.org/1999/xlink"
 xmlns:xodm="http://www.corel.com/coreldraw/odm/2003">
 <defs>
  <style type="text/css">
   <![CDATA[
    .fil4 {fill:#FEFEFE}
    .fil3 {fill:#C5A573}
    .fil0 {fill:#C5A573}
    .fil2 {fill:#29344D}
    .fil1 {fill:#29344D}
   ]]>
  </style>
 </defs>
 <g id="Camada_x0020_1">
  <metadata id="CorelCorpID_0Corel-Layer"/>
  <g id="_2049741818880">
   <path class="fil0" d="M184.84 0c0.25,0.1 0.49,0.22 0.72,0.37 1.02,0.71 1.25,1.81 0.61,2.95 -0.19,0.33 -0.44,0.58 -0.65,0.8 -0.25,0.25 -0.46,0.46 -0.55,0.74 -0.07,0.23 -0.11,0.44 -0.15,0.63 -0.1,0.49 -0.2,0.99 -0.68,1.53 -0.29,0.32 -0.29,0.66 -0.27,1.27 0,0.13 0.01,0.26 0.01,0.4l0 0.92c-0.01,0.43 -0.01,0.86 0,1.29l0 0.03c0.14,-0.11 0.29,-0.23 0.38,-0.32l0.3 -0.34c0.27,-0.31 0.54,-0.62 0.94,-0.89 0.56,-0.37 1.15,-0.64 1.72,-0.91 0.41,-0.19 0.83,-0.38 1.24,-0.62 1.42,-0.83 2.87,-1.79 4.71,-3.11 0.64,-0.46 1.15,-0.99 1.69,-1.56 0.3,-0.32 0.61,-0.65 0.95,-0.96 0.91,-0.85 1.95,-1.37 2.94,-1.8 0.33,-0.14 0.67,-0.28 1.02,-0.42l-14.93 0zm27.61 0c0,0.61 -0.26,1.2 -0.49,1.72 -0.18,0.4 -0.34,0.78 -0.4,1.13 -0.06,0.36 0.2,0.84 0.43,1.27l0.07 0.14c0.17,0.32 0.2,0.33 0.58,0.4 0.75,0.14 1.79,0.06 3.17,-0.23 0.23,-0.05 0.48,-0.08 0.73,-0.11 0.39,-0.05 0.75,-0.1 1.04,-0.21 0.12,-0.05 0.24,-0.13 0.37,-0.2 0.25,-0.16 0.53,-0.33 0.88,-0.39 0.57,-0.09 1.3,-0.03 1.78,0.07 0.26,0.05 0.52,0.08 0.77,0.1 0.21,0.03 0.42,0.05 0.64,0.08 0.45,0.07 0.76,0.29 1.03,0.48 0.11,0.08 0.23,0.16 0.37,0.23 0.12,0.07 0.24,0.13 0.37,0.19 0.29,0.14 0.59,0.28 0.89,0.49 0.34,0.24 0.67,0.48 1,0.72 0.82,0.6 1.66,1.22 2.55,1.68l0.27 0.14c0.29,0.15 0.59,0.31 0.87,0.42 0.31,0.11 0.6,0.1 0.96,0.09 0.13,0 0.26,-0.01 0.39,0 0.36,0 0.7,0.06 1.02,0.12 0.28,0.06 0.56,0.11 0.83,0.11l0.24 0c0.44,0 0.97,0 1.47,0.19 0.15,0.06 0.26,0.12 0.35,0.16 0.14,0.07 0.17,0.09 0.41,0.1 0.26,0.01 0.53,0 0.8,0 0.37,-0.01 0.74,-0.02 1.1,0.01 1.14,0.1 2.03,0.49 3,1.31 0.96,0.83 1.52,2.57 1.92,3.85l0.08 0.25c0.06,0.18 0.13,0.37 0.2,0.56 0.14,0.39 0.28,0.79 0.37,1.19 0.02,0.11 0.03,0.23 0.04,0.36l0.01 0.12 0.15 -0.04c0.26,-0.04 0.51,-0.04 0.77,-0.03 0.48,0.01 0.91,-0.06 1.46,-0.17 1.51,-0.28 2.7,0.14 3.79,0.6 0.41,0.16 0.84,0.21 1.33,0.24 0.78,0.05 1.18,0.31 1.73,0.66 0.88,0.55 1.81,1.06 2.7,1.56 1.39,0.78 2.82,1.57 4.15,2.54l0.11 0.08c0.48,0.35 0.93,0.67 0.71,1.67 -0.11,0.54 -0.3,0.72 -0.67,0.92l-0.13 0.07c-0.14,0.09 -0.3,0.15 -0.46,0.22 -0.18,0.07 -0.36,0.14 -0.46,0.24 -0.12,0.13 -0.19,0.37 -0.27,0.64 -0.07,0.22 -0.14,0.45 -0.24,0.65 -0.12,0.23 -0.27,0.4 -0.41,0.55l-0.23 0.3c-0.08,0.13 -0.14,0.32 -0.21,0.52 -0.04,0.12 -0.09,0.25 -0.13,0.37l-0.19 0.46c-0.3,0.71 -0.56,1.33 -0.71,2.11 -0.26,1.37 -1.1,2.29 -1.91,3.17 -0.43,0.47 -0.84,0.91 -1.17,1.42 -0.42,0.64 -0.74,1.43 -0.97,2.05l-0.13 0.32c-0.17,0.42 -0.43,1.07 -0.38,1.42 0.05,0.28 0.67,0.67 1.08,0.93 0.27,0.17 0.52,0.33 0.71,0.49 0.15,0.12 0.28,0.25 0.43,0.38 0.2,0.19 0.4,0.38 0.61,0.53l0.29 0.17c0.22,0.12 0.49,0.26 0.71,0.64 0.3,0.54 0.25,1.22 0.15,1.7 -0.11,0.57 -0.19,1.05 -0.19,1.47l0.1 0.07 0.17 0.12c0.23,0.18 0.28,0.51 0.1,0.75l-0.05 0.04c0.12,0.14 0.26,0.26 0.45,0.37 0.19,0.11 0.42,0.18 0.66,0.25 0.41,0.12 0.88,0.25 1.29,0.63l0.19 0.17c0.33,0.31 0.57,0.53 0.97,0.76 0.14,0.07 0.26,0.16 0.39,0.25 0.15,0.11 0.3,0.21 0.42,0.26 0.2,0.08 0.41,0.12 0.61,0.17 0.27,0.06 0.55,0.12 0.84,0.25l0.35 0.15c0.25,0.1 0.5,0.21 0.75,0.29 0.01,-0.13 0.03,-0.27 0.07,-0.4 0.08,-0.25 0.18,-0.47 0.28,-0.7 0.09,-0.19 0.18,-0.38 0.25,-0.6 0.36,-1.17 0.97,-1.78 1.9,-2.43 0.2,-0.14 0.41,-0.26 0.6,-0.37 0.48,-0.28 0.83,-0.48 1.01,-0.95 0.09,-0.21 0.14,-0.4 0.19,-0.58 0.11,-0.4 0.23,-0.81 0.59,-1.29 0.25,-0.32 0.51,-0.57 0.74,-0.79 0.42,-0.4 0.7,-0.67 0.8,-1.26 0.22,-1.25 -0.19,-2.62 -0.59,-3.95 -0.16,-0.53 -0.32,-1.04 -0.43,-1.53 -0.31,-1.37 0.18,-2.9 0.57,-4.13l0.22 -0.7c0.29,-0.96 0.66,-2.17 1.2,-2.95 0.15,-0.22 0.37,-0.36 0.54,-0.48l0.25 -0.19c0.07,-0.12 0.09,-0.45 0.11,-0.69 0.02,-0.21 0.04,-0.41 0.07,-0.58 0.1,-0.45 0.15,-0.89 0.2,-1.36 0.05,-0.51 0.11,-1.03 0.23,-1.58 0.04,-0.16 0.07,-0.32 0.1,-0.47 0.08,-0.41 0.16,-0.79 0.36,-1.27 0.16,-0.38 0.18,-0.52 0.2,-0.75 0.02,-0.16 0.04,-0.35 0.11,-0.63 0.04,-0.22 0.11,-0.39 0.18,-0.56 0.09,-0.2 0.14,-0.32 0.12,-0.56 -0.03,-0.36 -0.4,-0.9 -0.66,-1.29 -0.1,-0.14 -0.19,-0.27 -0.26,-0.39 -0.12,-0.2 -0.1,-0.46 0.06,-0.63 0.12,-0.13 0.1,-0.25 -0.26,-0.82 -0.15,-0.24 -0.31,-0.48 -0.41,-0.75 -0.26,-0.67 -0.53,-1.34 -0.79,-2.01l-0.51 -1.29c-0.14,-0.35 -0.33,-0.66 -0.53,-0.99 -0.33,-0.55 -0.67,-1.12 -0.77,-1.85 -0.07,-0.6 0.02,-1.26 0.09,-1.6 0.11,-0.56 0.28,-1.06 0.45,-1.55 0.19,-0.56 0.37,-1.09 0.45,-1.69 0.05,-0.37 0.06,-0.72 0.06,-1.09 0,-0.17 0,-0.35 0,-0.53 0.02,-0.59 0.22,-1.05 0.39,-1.46 0.03,-0.08 0.07,-0.15 0.1,-0.23l-56.65 0z"/>
   <g>
    <polygon class="fil0" points="121.54,74.34 121.65,74.06 121.65,74.05 "/>
    <path class="fil0" d="M197.14 106.67c-0.2,0.18 -0.42,0.38 -0.72,0.52 -0.79,0.38 -1.72,0.43 -2.63,0.48 -0.39,0.02 -0.78,0.03 -1.13,0.08 -1.98,0.29 -3.7,1.01 -4.71,2 -0.56,0.54 -0.9,0.88 -1.65,1.09 -0.24,0.06 -0.48,0.11 -0.72,0.17 -0.28,0.06 -0.57,0.12 -0.85,0.2 -0.93,0.3 -1.93,0.47 -2.89,0.47 -2.02,0 -3.89,-0.74 -4.74,-2.6 -0.48,-1.06 -0.66,-2.48 -0.79,-3.62l-0.02 -0.11c-0.04,-0.37 -0.07,-0.74 -0.1,-1.11 -0.08,-1.07 -0.16,-2.09 -0.64,-2.98 -0.13,-0.24 -0.31,-0.48 -0.48,-0.72 -0.37,-0.53 -0.79,-1.13 -0.92,-1.83 -0.1,-0.61 0.05,-1.11 0.2,-1.59 0.04,-0.12 0.08,-0.24 0.11,-0.36l0.07 -0.24c0.33,-1.22 0.6,-2.18 0.49,-3.43 -0.06,-0.73 -0.18,-1 -0.51,-1.15 -0.25,-0.11 -0.8,-0.32 -1.02,-0.36 -0.3,-0.06 -0.64,-0.03 -1.01,0 -0.45,0.04 -0.91,0.08 -1.39,-0.02 -0.56,-0.13 -1.59,-0.36 -1.93,-1.34 -0.15,-0.41 -0.14,-0.81 -0.13,-1.16 0,-0.18 0.01,-0.35 -0.01,-0.53 -0.02,-0.21 -0.15,-0.44 -0.28,-0.69 -0.22,-0.4 -0.47,-0.86 -0.4,-1.43 0.02,-0.21 0.08,-0.39 0.13,-0.55 0.04,-0.14 0.08,-0.26 0.09,-0.36 0.02,-0.29 -0.05,-0.67 -0.1,-1.03 -0.04,-0.22 -0.08,-0.43 -0.1,-0.62 -0.09,-0.92 -0.05,-1.73 0.14,-2.73 0.13,-0.7 0.1,-1.51 0.07,-2.29 -0.02,-0.4 -0.04,-0.8 -0.03,-1.18 0.01,-0.62 -0.04,-1.25 -0.13,-2.02 -0.07,-0.54 -0.25,-0.74 -0.67,-1.22 -0.17,-0.19 -0.29,-0.34 -0.41,-0.49 -0.14,-0.17 -0.27,-0.34 -0.42,-0.5l-0.18 -0.2c-0.2,-0.22 -0.57,-0.64 -0.75,-0.73 -0.83,-0.42 -2.16,-0.02 -3.04,0.57 -0.26,0.17 -0.51,0.37 -0.77,0.56 -0.79,0.59 -1.6,1.2 -2.59,1.43 -1.17,0.26 -2.42,0.5 -3.64,0.5 -0.57,0 -1.1,0.05 -1.67,0.1 -0.58,0.06 -1.13,0.12 -1.78,0.12l-0.41 0c-0.46,0 -0.93,0.01 -1.42,-0.07l-0.33 -0.05c-0.54,-0.1 -0.96,-0.17 -1.36,0.04l-0.3 0.19c-0.14,0.1 -0.28,0.2 -0.44,0.27 -0.11,0.06 -0.26,0.11 -0.41,0.16l-0.36 0.15c-0.02,0.05 -0.06,0.17 -0.07,0.3l-0.1 0.27c-0.31,0.44 -0.7,0.79 -1.19,1.03l-0.16 0.14c-0.31,0.25 -0.71,0.56 -1.19,0.66 -0.73,0.14 -1.14,-0.12 -1.36,-0.36 -0.58,-0.66 -0.31,-1.8 -0.16,-2.26 0.04,-0.15 0.09,-0.28 0.13,-0.41 0.22,-0.62 0.3,-0.85 -0.05,-1.28 -0.52,-0.63 -1.91,-1.51 -2.56,-1.43 -0.34,0.02 -0.8,0.23 -1.2,0.42 -0.21,0.1 -0.41,0.19 -0.59,0.26 -0.7,0.27 -1.12,0.17 -1.61,0.07 -0.1,-0.02 -0.22,-0.05 -0.34,-0.07 -0.22,-0.04 -0.43,-0.06 -0.64,-0.08 -0.64,-0.07 -1.3,-0.15 -1.93,-0.62 -0.44,-0.33 -0.91,-0.63 -1.4,-0.94 -0.48,-0.29 -0.95,-0.59 -1.4,-0.92 -0.53,-0.4 -1.2,-0.39 -1.97,-0.39 -0.44,0.01 -0.8,0 -1.15,0 -0.49,-0.01 -0.98,-0.02 -1.47,0 -0.49,0.01 -0.86,0.44 -1.29,0.94l-0.11 0.13c-0.66,0.76 -1.28,1.34 -1.96,1.8 -0.2,0.14 -0.41,0.26 -0.63,0.38l-0.33 0.21 0.02 0.18 0.01 0.25c0.03,0.4 0.08,0.95 -0.31,1.36 -0.41,0.44 -1.21,0.59 -1.93,0.71 -1.07,0.17 -1.9,0.75 -2.78,1.35l-0.2 0.14c-0.55,0.38 -0.96,0.7 -1.3,1.12 -0.28,0.35 -0.34,0.92 -0.4,1.48l-0.05 0.5c-0.05,0.47 -0.09,0.96 -0.35,1.45 -0.1,0.2 -0.24,0.38 -0.38,0.57 -0.16,0.21 -0.32,0.41 -0.36,0.59 -0.05,0.18 -0.05,0.37 -0.06,0.59 -0.01,0.27 -0.02,0.59 -0.11,0.92 -0.25,0.86 -0.36,1.12 -1.08,1.68 -0.14,0.11 -0.29,0.2 -0.44,0.3 -0.26,0.18 -0.51,0.34 -0.66,0.53 -0.24,0.33 -0.4,0.95 -0.51,1.4l-0.03 0.14c-0.11,0.44 -0.22,0.86 -0.45,1.32 -0.13,0.25 -0.29,0.45 -0.43,0.64 -0.15,0.18 -0.27,0.34 -0.34,0.51 -0.08,0.18 -0.11,0.34 -0.14,0.49 -0.06,0.28 -0.13,0.59 -0.38,0.97 -0.37,0.56 -0.67,0.79 -1.07,1.1l-0.17 0.14c-0.49,0.38 -0.95,0.75 -1.21,1.25 -0.05,0.1 -0.12,0.22 -0.19,0.35 -0.12,0.2 -0.25,0.42 -0.31,0.59l-0.03 0.2c0,0.12 -0.01,0.29 -0.08,0.5 -0.23,0.76 -0.67,1.44 -1.1,2.1 -0.18,0.28 -0.36,0.56 -0.52,0.83 -0.11,0.2 -0.2,0.4 -0.29,0.59 -0.21,0.47 -0.44,0.95 -0.89,1.38 -0.43,0.43 -0.92,0.77 -1.39,1.1l-0.37 0.25c-0.29,0.21 -0.57,0.42 -0.86,0.64 -1.08,0.81 -2.19,1.65 -3.55,2.01 -0.72,0.19 -1.4,0.55 -2.07,0.95l0.1 -0.02c0.23,-0.03 0.46,-0.06 0.68,-0.11 0.48,-0.12 0.98,-0.1 1.43,-0.08 0.82,0.03 1.59,0.03 2.4,0.05 1.19,0.04 2.42,0.08 3.57,-0.02 0.48,-0.04 0.91,-0.28 1.36,-0.53l0.34 -0.2c0.77,-0.41 1.04,-0.41 1.61,-0.41 0.13,0 0.28,0.01 0.47,0l0.37 0.15c0.15,0.15 0.22,0.14 0.36,0.06 0.36,-0.26 0.83,-0.34 1.32,-0.22l0.56 0.01c0.88,0 1.77,0.01 2.66,0l0.07 0c1.59,0 3,0.29 4.53,0.63 1.65,0.37 3.32,0.59 5.27,0.71 0.86,0.05 1.67,0.26 2.45,0.47 0.79,0.21 1.54,0.41 2.29,0.44 0.64,0.03 1.27,-0.02 1.95,-0.08 1.25,-0.11 2.55,-0.22 3.82,0.24 1.15,0.42 1.96,0.78 2.66,1.92 0.31,0.52 0.69,1.03 1.06,1.53 0.18,0.25 0.36,0.5 0.53,0.74 1.11,1.57 1.95,3.23 2.51,4.92 0.15,0.45 0.34,0.88 0.52,1.32 0.23,0.53 0.46,1.08 0.63,1.66l0.11 0.35c0.14,0.51 0.26,0.91 0.49,1.39 0.32,0.67 0.55,1.36 0.78,2.03l0.22 0.61c0.26,0.73 0.31,1.53 0.36,2.29 0.03,0.37 0.05,0.74 0.1,1.1 0.16,1.14 0.15,2.26 0.15,3.35l0 0.71c0,0.76 0.07,1.28 0.47,1.65 0.24,0.24 0.48,0.36 0.74,0.39 0.42,-0.05 0.94,-0.12 1.46,-0.2 0.62,-0.1 1.26,-0.1 1.88,0l0.84 0.08c0.55,0.05 1.11,0.1 1.66,0.15 0.63,0.07 1.25,0.12 1.86,0.16 0.29,-0.04 0.59,-0.01 0.87,0.08l0.14 0.07c0.83,0.58 0.29,2.1 -0.01,2.92 -0.18,0.52 -0.38,0.92 -0.57,1.31 -0.15,0.29 -0.29,0.58 -0.41,0.87 -0.09,0.21 -0.07,0.28 -0.07,0.28 0.13,0.11 0.89,0.07 1.21,0.06 0.24,-0.01 0.47,-0.03 0.65,-0.02 0.49,0.02 0.94,0.13 1.38,0.24 0.18,0.04 0.37,0.09 0.55,0.12 0.11,0.02 0.23,0.03 0.36,0.04 0.38,0.02 0.81,0.05 1.15,0.3 0.51,0.37 0.57,1.05 0.61,1.54l0.02 0.23c0.04,0.31 0.08,0.6 0.11,0.88 0.12,-0.09 0.24,-0.16 0.36,-0.25 0.29,-0.21 0.59,-0.42 0.91,-0.63 0.6,-0.41 1.26,-0.66 1.9,-0.89 0.99,-0.37 1.84,-0.69 2.35,-1.48 0.15,-0.24 0.34,-0.49 0.54,-0.75 0.38,-0.49 0.77,-1 0.89,-1.47 0.06,-0.25 0.08,-0.52 0.11,-0.78 0.02,-0.25 0.04,-0.51 0.09,-0.75 0.03,-0.15 0.05,-0.3 0.07,-0.45 0.07,-0.44 0.14,-0.89 0.32,-1.32l0.05 -0.1c0.19,-0.28 0.38,-0.55 0.55,-0.84 0.17,-0.49 0.37,-0.97 0.58,-1.45l0.06 -0.11c0.82,-1.06 2.45,-1.59 3.89,-2.05 0.72,-0.24 1.41,-0.46 1.91,-0.72 0.27,-0.14 0.51,-0.3 0.76,-0.47 0.37,-0.25 0.76,-0.51 1.25,-0.7 0.44,-0.17 0.85,-0.41 1.29,-0.66l0.59 -0.34c1.33,-0.74 2.7,-1.51 4.09,-2.11 0.25,-0.11 0.48,-0.23 0.7,-0.35 0.21,-0.11 0.41,-0.22 0.62,-0.32 0.15,-0.07 0.31,-0.17 0.48,-0.27 0.24,-0.15 0.47,-0.29 0.66,-0.36 0.77,-0.32 1.8,-0.23 2.71,-0.16 0.35,0.03 0.68,0.06 0.96,0.06l1.4 0c0.76,0.01 1.53,0.01 2.29,0 0.98,0 1.13,-0.14 1.24,-1.07 0.04,-0.33 0.04,-0.62 0.04,-0.9 0,-0.57 0.01,-1.16 0.33,-1.89 0.51,-1.12 1.1,-1.86 2.51,-2.03 0.45,-0.06 0.89,-0.17 1.35,-0.28l0.47 -0.11c0.35,-0.08 0.58,-0.17 0.79,-0.28l-0.27 -0.26c-0.17,-0.15 -0.3,-0.28 -0.4,-0.41 -0.53,-0.74 -1.32,-1.84 -0.93,-2.74 0.26,-0.6 0.82,-0.99 1.32,-1.34 0.18,-0.12 0.36,-0.24 0.5,-0.36 0.42,-0.37 0.83,-0.67 1.44,-0.92 0.4,-0.16 0.78,-0.25 1.16,-0.33 0.44,-0.1 0.86,-0.2 1.25,-0.41 0.4,-0.23 0.82,-0.43 1.24,-0.62 0.37,-0.18 0.74,-0.35 1.1,-0.54 0.32,-0.18 0.76,-0.42 0.93,-0.65 0.09,-0.13 0.16,-0.27 0.22,-0.4 0.1,-0.19 0.2,-0.41 0.38,-0.63l0.14 -0.3c-0.41,-0.03 -0.61,-0.28 -0.71,-0.41 -0.15,0.03 -0.28,0.11 -0.46,0.23 -0.19,0.12 -0.4,0.25 -0.69,0.34 -0.61,0.18 -1.34,0.13 -1.98,0.09 -0.21,-0.01 -0.41,-0.02 -0.58,-0.02 -0.99,-0.02 -1.64,-0.29 -2.39,-1l-0.08 -0.08c-0.18,-0.15 -0.42,-0.36 -0.51,-0.64l0 -0.02c-0.31,0.14 -0.6,0.27 -0.85,0.42 -0.15,0.09 -0.27,0.21 -0.4,0.31z"/>
    <path class="fil0" d="M244.89 90.2c-0.19,-0.11 -0.31,-0.22 -0.41,-0.32l-0.15 -0.13 -0.11 -0.03c-0.15,-0.04 -0.32,-0.09 -0.49,-0.21 -0.12,-0.09 -0.22,-0.18 -0.32,-0.26l-0.29 -0.22c-0.15,-0.08 -0.29,-0.17 -0.44,-0.26 -0.38,-0.23 -0.73,-0.44 -1.09,-0.5 -0.19,-0.03 -0.46,-0.01 -0.74,0.01 -0.45,0.04 -0.96,0.08 -1.42,-0.1 -0.26,-0.1 -0.5,-0.29 -0.72,-0.48 -0.16,-0.12 -0.35,-0.28 -0.46,-0.32 -0.24,-0.09 -0.58,-0.08 -0.95,-0.06 -0.78,0.04 -1.87,0.09 -2.38,-1.14 -0.16,-0.37 -0.15,-0.74 -0.12,-1.09l-0.1 0.1c-0.12,0.15 -0.23,0.32 -0.33,0.48 -0.2,0.31 -0.41,0.62 -0.73,0.93l-0.2 0.2c-0.33,0.31 -0.7,0.66 -0.93,0.98 -0.13,0.34 -0.26,0.68 -0.39,1.03 -0.28,0.53 -0.62,0.93 -1.05,1.26 -0.49,0.46 -0.66,0.7 -0.75,1.36 -0.02,0.18 -0.03,0.35 -0.04,0.52 -0.03,0.34 -0.05,0.7 -0.16,1.09 -0.16,0.57 -0.45,1.14 -0.69,1.6 -0.33,0.65 -0.57,1.2 -0.74,1.69 -0.24,0.71 -0.36,1.02 -0.85,1.66 -0.34,0.43 -0.73,0.68 -1.1,0.92 -0.12,0.08 -0.24,0.16 -0.37,0.25l-0.29 0.21c-0.3,0.23 -0.64,0.49 -0.98,0.63 -1.09,0.45 -2.49,0.39 -3.74,0.34 -0.33,-0.02 -0.65,-0.03 -0.94,-0.03 -0.52,-0.01 -0.97,-0.04 -1.39,-0.08 -0.97,-0.08 -1.67,-0.14 -2.69,0.26 -1.03,0.41 -2.07,0.52 -3.08,0.63 -0.63,0.07 -1.29,0.14 -1.92,0.28 -0.44,0.1 -0.85,0.24 -1.27,0.38 -0.54,0.18 -1.1,0.36 -1.71,0.47 -0.63,0.12 -0.89,0.22 -1.23,0.64l-0.23 0.3c-0.15,0.2 -0.3,0.42 -0.52,0.62 -1.19,1.1 -3.07,1.28 -4.72,1.43 -0.55,0.05 -1.07,0.09 -1.52,0.17 -0.23,0.04 -0.47,0.1 -0.71,0.17l-0.01 0.08 0.17 0.14 0.11 0.11c0.56,0.52 0.97,0.69 1.68,0.71 0.2,0 0.41,0.01 0.63,0.03 0.56,0.03 1.19,0.07 1.61,-0.06 0.15,-0.04 0.28,-0.12 0.43,-0.22 0.24,-0.15 0.55,-0.35 1,-0.39 0.5,-0.05 0.75,0.26 0.86,0.4 0.53,-0.02 0.78,0.29 0.85,0.44 0.33,0.59 -0.14,1.4 -0.28,1.58 -0.11,0.14 -0.18,0.28 -0.26,0.44 -0.09,0.2 -0.18,0.38 -0.32,0.57 -0.31,0.41 -0.84,0.71 -1.24,0.92 -0.4,0.23 -0.8,0.41 -1.19,0.59 -0.39,0.19 -0.79,0.37 -1.17,0.59 -0.52,0.29 -1.04,0.41 -1.54,0.52 -0.35,0.08 -0.68,0.15 -0.99,0.28 -0.48,0.19 -0.79,0.43 -1.15,0.74 -0.17,0.14 -0.37,0.29 -0.59,0.44 -0.38,0.26 -0.81,0.56 -0.95,0.88 -0.15,0.35 0.54,1.31 0.77,1.62 0.08,0.13 0.21,0.24 0.3,0.33 0.15,0.13 0.31,0.29 0.45,0.45l0.07 -0.04c0.45,-0.3 0.9,-0.49 1.3,-0.66 0.69,-0.29 1.24,-0.51 1.61,-1.18 0.07,-0.12 0.17,-0.26 0.27,-0.41 0.15,-0.23 0.35,-0.54 0.38,-0.7 0.02,-0.1 -0.06,-0.35 -0.13,-0.53 -0.14,-0.41 -0.36,-1.04 0.1,-1.51 0.12,-0.13 0.3,-0.19 0.47,-0.16 2.73,0.49 5.52,0.98 8.09,0.65 0.79,-0.09 1.55,0.11 2.28,0.32 0.36,0.1 0.71,0.2 1.05,0.25 0.54,0.08 1,-0.01 1.54,-0.13 0.36,-0.07 0.74,-0.15 1.18,-0.18 0.8,-0.05 1.71,-0.05 2.62,0 0.45,0.02 0.87,0.11 1.27,0.19 0.61,0.12 1.19,0.23 1.76,0.12 0.66,-0.14 1.32,-0.23 1.98,-0.32 1.29,-0.17 2.51,-0.34 3.69,-0.83 0.81,-0.34 1.29,-0.61 1.68,-1.15l0.18 -0.25c0.41,-0.59 0.77,-1.1 1.55,-1.5 0.74,-0.36 1.47,-0.41 2.18,-0.46 0.42,-0.03 0.82,-0.06 1.22,-0.15 0.72,-0.16 1.21,-0.67 1.79,-1.27l0.34 -0.36c0.62,-0.63 1.14,-1.43 1.65,-2.2l0.08 -0.13c0.3,-0.54 0.69,-1.08 1.13,-1.56 0.03,-0.18 0.05,-0.37 0.05,-0.56l0.02 -0.16c0.29,-0.93 1.07,-1.53 2.31,-1.78 0.3,-0.06 0.63,-0.04 0.98,-0.02 0.98,0.07 1.09,-0.02 1.13,-0.29 0.03,-0.2 0.18,-0.36 0.37,-0.42 0.2,-0.06 0.44,-0.51 0.62,-0.84 0.14,-0.25 0.27,-0.49 0.41,-0.67 0.84,-1.05 1.46,-2.54 1.67,-3.98 0.08,-0.59 -0.18,-0.8 -0.79,-1.22 -0.45,-0.32 -0.97,-0.67 -1.23,-1.33 -0.16,-0.39 -0.19,-0.61 -0.17,-0.85l-0.2 -0.15 -0.21 -0.15z"/>
    <path class="fil0" d="M251.44 45.55c-0.15,0.03 -0.3,0.06 -0.46,0.08 -0.54,0.09 -0.97,0.25 -1.46,0.43 -0.18,0.07 -0.37,0.14 -0.57,0.21 -0.44,0.15 -0.61,0.42 -0.88,0.84 -0.16,0.25 -0.35,0.54 -0.62,0.83 -0.32,0.34 -0.69,0.56 -1.02,0.75 -0.58,0.36 -0.89,0.57 -0.98,1.13 -0.05,0.31 -0.05,0.63 -0.06,0.96 -0.02,0.54 -0.04,1.1 -0.2,1.63 -0.24,0.79 -0.85,1.39 -1.39,1.92 0.16,0.26 0.51,0.5 0.83,0.73 0.15,0.11 0.3,0.21 0.42,0.31 1.38,1.11 2.28,2.14 2.92,3.36 0.1,0.19 0.08,0.43 -0.07,0.59 -0.61,0.7 -1.2,1.22 -2.08,1.5 -0.37,0.11 -0.76,0.13 -1.14,0.16 -0.46,0.02 -0.89,0.05 -1.18,0.23l-0.12 0.05 -0.14 0.05c-0.04,0.18 0,0.35 0.11,0.54 0.17,0.45 0.33,0.8 0.5,1.15 0.15,0.32 0.3,0.64 0.43,0.97 0.41,1.07 0.36,2.1 0.26,3.15 -0.09,0.94 -0.44,1.48 -0.85,2.11l-0.15 0.24c-0.55,0.85 -0.9,0.95 -1.73,1.1l-0.12 0.03c-0.12,0.02 -0.25,0.04 -0.39,0.06 -0.37,0.05 -0.79,0.11 -1.02,0.26 -0.77,0.5 -0.8,1.95 -0.82,3l-0.01 0.29c-0.01,0.41 -0.03,1.38 -0.78,1.97 -0.44,0.34 -0.93,0.38 -1.33,0.4 -0.21,0.02 -0.41,0.03 -0.56,0.08 -0.75,0.26 -1.16,0.59 -1.27,1.02 -0.32,1.21 -0.42,2.69 -0.27,3.96l0.04 0.32c0.03,0.34 0.08,0.8 0.16,1.05l0.14 0.25c0.1,0.13 0.21,0.3 0.28,0.52 0.13,0.41 0.07,0.83 0.02,1.19 -0.04,0.31 -0.07,0.6 0.01,0.8 0.21,0.5 0.54,0.53 1.36,0.49 0.45,-0.02 0.92,-0.04 1.36,0.12 0.28,0.11 0.53,0.31 0.76,0.5 0.16,0.13 0.34,0.27 0.46,0.32 0.22,0.09 0.58,0.06 0.93,0.03 0.33,-0.03 0.67,-0.06 0.99,-0.01 0.57,0.09 1.05,0.38 1.48,0.64 0.13,0.08 0.26,0.16 0.39,0.23 0.23,0.13 0.37,0.26 0.5,0.37l0.22 0.19 0.16 0.05c0.15,0.04 0.33,0.09 0.49,0.22l0.22 0.19 0.21 0.16 0.12 0.09c0.03,-0.12 0.05,-0.25 0.08,-0.37 0.08,-0.31 0.15,-0.61 0.18,-0.94 0.11,-1.15 0.36,-2.09 0.62,-3.09 0.22,-0.81 0.63,-1.27 1.06,-1.74 0.17,-0.2 0.36,-0.4 0.55,-0.66 0.69,-0.92 1.3,-1.89 1.89,-2.83 0.56,-0.88 1.14,-1.79 1.79,-2.69 0.36,-0.5 0.78,-0.92 1.18,-1.32 0.21,-0.21 0.42,-0.42 0.62,-0.64 0.38,-0.41 0.69,-0.86 0.98,-1.3 0.26,-0.38 0.52,-0.75 0.82,-1.11 0.4,-0.47 0.9,-0.79 1.39,-1.1 0.32,-0.2 0.62,-0.39 0.88,-0.62 0.29,-0.26 0.57,-0.41 0.81,-0.55 0.33,-0.18 0.57,-0.32 0.81,-0.69 0.33,-0.51 0.58,-0.9 1.09,-1.35l0.28 -0.22 0.38 -0.31c0.05,-0.08 0.04,-0.31 0.04,-0.5 -0.01,-0.36 -0.02,-0.87 0.32,-1.23 0.17,-1.68 0.1,-3.4 -0.21,-5.1 -0.07,-0.38 -0.04,-0.78 -0.01,-1.16 0.03,-0.36 0.06,-0.74 -0.02,-0.96 -0.05,-0.15 -0.13,-0.27 -0.22,-0.41 -0.1,-0.17 -0.21,-0.35 -0.29,-0.56 -0.41,-1.04 -0.34,-2.46 -0.24,-3.7 0.02,-0.18 0.01,-0.29 0,-0.37 -0.03,-0.34 0,-0.55 0.28,-1.1 0.15,-0.31 0.39,-0.6 0.62,-0.89 0.19,-0.22 0.39,-0.46 0.48,-0.65l0.04 -0.18c-0.38,-0.12 -0.73,-0.27 -1.08,-0.42l-0.35 -0.15c-0.22,-0.08 -0.44,-0.13 -0.66,-0.18 -0.26,-0.06 -0.52,-0.12 -0.77,-0.23 -0.24,-0.09 -0.45,-0.24 -0.64,-0.37l-0.3 -0.2c-0.51,-0.29 -0.82,-0.57 -1.17,-0.9l-0.18 -0.17c-0.23,-0.21 -0.53,-0.29 -0.87,-0.39 -0.28,-0.08 -0.59,-0.17 -0.9,-0.34 -0.77,-0.44 -1.11,-1.05 -1.23,-1.69 -0.15,-0.11 -0.29,-0.22 -0.44,-0.32 -0.5,-0.31 -0.93,-0.25 -1.71,-0.11z"/>
    <path class="fil0" d="M120.98 0c-0.26,0.67 -0.33,1.55 -0.39,2.35 -0.03,0.29 -0.05,0.58 -0.08,0.84 -0.15,1.24 -0.6,2.29 -0.97,3.06 -0.11,0.21 -0.18,0.43 -0.25,0.63 -0.21,0.59 -0.44,1.25 -1.21,1.69 -0.16,0.09 -0.33,0.17 -0.5,0.25 -0.2,0.09 -0.4,0.18 -0.56,0.29l-0.2 0.17c-0.22,0.18 -0.47,0.39 -0.92,0.45 -0.32,0.05 -0.61,0.02 -0.88,0 -0.51,-0.04 -0.72,-0.04 -0.91,0.15 -0.47,0.47 -0.76,1.28 -0.87,1.88 -0.12,0.66 -0.16,1.34 -0.2,2.05 -0.02,0.54 -0.05,1.07 -0.12,1.59 -0.05,0.44 -0.11,0.9 -0.37,1.34 -0.24,0.42 -0.61,0.7 -0.97,0.98 -0.23,0.18 -0.44,0.35 -0.6,0.54 -0.73,0.86 -1.52,1.57 -2.34,2.12 -0.52,0.36 -1,0.59 -1.46,0.71 -0.15,0.04 -0.31,0.06 -0.47,0.08 -0.19,0.02 -0.36,0.05 -0.46,0.11 -0.11,0.07 -0.23,0.19 -0.35,0.32 -0.19,0.2 -0.4,0.43 -0.69,0.58 -0.25,0.14 -0.49,0.2 -0.7,0.26 -0.24,0.07 -0.42,0.12 -0.61,0.26 -0.23,0.17 -0.45,0.39 -0.67,0.61 -0.25,0.25 -0.51,0.51 -0.81,0.74 -0.52,0.38 -0.92,0.7 -1.3,1.12l-0.22 0.24c-0.25,0.26 -0.47,0.5 -0.57,0.79 -0.12,0.37 -0.13,0.76 -0.12,1.17l0.01 0.52c0.01,0.84 0.03,1.72 -0.19,2.57 -0.06,0.23 -0.1,0.46 -0.14,0.68 -0.13,0.76 -0.28,1.61 -1.13,2.2 -0.52,0.36 -0.74,0.51 -1.06,0.89 -0.19,0.22 -0.38,0.45 -0.56,0.67l-0.48 0.57c-0.17,0.21 -0.36,0.4 -0.55,0.59 -0.5,0.53 -0.93,0.98 -1.06,1.62 0.03,0.23 0.05,0.41 -0.01,0.61 -0.06,0.23 -0.17,0.37 -0.25,0.47l-0.07 0.11c-0.11,0.25 -0.15,0.54 -0.11,0.81l0.08 0.46c0.07,0.48 0.15,0.95 0.16,1.49l0.07 0.24 0.02 0.07 0.05 0.09c0.06,0.17 0.12,0.35 0.18,0.52 0.2,0.56 0.39,1.1 0.73,1.51l0.26 0.27c0.23,0.23 0.5,0.49 0.63,0.82 0.09,0.22 0.1,0.43 0.1,0.61l0.01 0.19 0.07 0.2c0.08,0.23 0.2,0.54 0.11,0.89 -0.06,0.25 -0.21,0.4 -0.3,0.49l-0.17 0.31c-0.18,0.36 -0.3,0.57 -0.67,0.89 0.01,0.13 0.01,0.26 0.01,0.37l0.01 0.3c0.02,0.13 0.08,0.29 0.14,0.45l0.13 0.34c0.09,0.27 0.11,0.52 0.13,0.74l0.01 0.19 0.24 0.09 0.24 0.09c0.23,0.08 0.48,0.1 0.75,0.13 0.27,0.02 0.55,0.05 0.81,0.12 1.3,0.34 1.38,1.13 1.35,1.97 -0.06,1.5 0.62,1.73 1.21,1.77 0.42,0.02 0.81,0.1 1.19,0.18l0.3 0.06c0.29,0.05 0.58,0.07 0.87,0.09 0.34,0.02 0.68,0.05 1.01,0.11 0.63,0.13 1.08,0.48 1.48,0.79 0.28,0.22 0.54,0.42 0.84,0.54 0.57,0.22 1.16,0.4 1.75,0.59 1.29,0.41 2.62,0.83 3.78,1.64 0.98,0.69 2.02,1.34 3.03,1.97 0.45,0.29 0.91,0.57 1.36,0.86 0.42,0.27 0.85,0.53 1.27,0.78 0.95,0.58 1.94,1.18 2.86,1.92l0.28 0.2c0.33,0.23 0.71,0.5 0.85,1.17 0.03,0.13 0.06,0.29 0.08,0.44 0.15,-0.12 0.29,-0.24 0.44,-0.35 0.15,-0.11 0.28,-0.22 0.4,-0.32 0.56,-0.48 1.12,-0.96 1.67,-1.46 0.57,-0.51 0.67,-0.8 0.91,-1.48l0.1 -0.28c0.12,-0.34 0.26,-0.66 0.41,-0.99 0.15,-0.35 0.31,-0.71 0.43,-1.08 0.23,-0.67 0.44,-1.14 0.94,-1.75 0.18,-0.21 0.35,-0.45 0.51,-0.68 0.36,-0.5 0.73,-1.03 1.25,-1.43 0.75,-0.58 1.55,-0.66 2.25,-0.72 0.4,-0.04 0.77,-0.08 1.14,-0.2 0.12,-0.04 0.26,-0.12 0.4,-0.2 0.31,-0.19 0.71,-0.41 1.22,-0.37 0.34,0.02 0.61,0.16 0.83,0.28 0.17,0.08 0.32,0.16 0.45,0.16 0.24,0 0.72,-0.07 1.3,-0.23 0.3,-0.07 0.59,-0.32 0.9,-0.58 0.17,-0.14 0.33,-0.28 0.5,-0.4 0.43,-0.29 0.73,-0.63 1.08,-1.02 0.15,-0.15 0.29,-0.32 0.45,-0.48 0.35,-0.36 1.27,-1.31 2.27,-0.93 0.28,0.12 0.51,0.31 0.71,0.47 0.12,0.11 0.24,0.21 0.35,0.27 0.09,0 0.23,0.01 0.37,0.08 0.14,0.07 0.25,0.17 0.34,0.24l0.12 0.1c0.27,0.08 0.64,-0.21 0.95,-0.43 0.34,-0.25 0.62,-0.47 0.91,-0.7 0.43,-0.35 0.89,-0.71 1.39,-1.03l0.27 -0.19c0.44,-0.29 0.92,-0.62 1.45,-0.77 0.21,-0.06 0.43,-0.11 0.66,-0.16 0.31,-0.06 0.6,-0.12 0.87,-0.23 0.59,-0.23 1.08,-0.42 1.7,-0.47 0.71,-0.05 1.33,0.23 1.89,0.48l0.2 0.09c0.23,0.1 0.45,0.22 0.67,0.34 0.33,0.18 0.65,0.35 0.98,0.43 0.14,0.03 0.28,0.06 0.43,0.1 0.31,0.06 0.62,0.13 0.93,0.23 0.22,0.07 0.44,0.12 0.66,0.17 0.38,0.09 0.77,0.19 1.14,0.35l0.2 0.09c0.28,0.13 0.44,0.2 0.66,0.18 0.72,-0.07 1.25,-0.54 1.86,-1.08 0.47,-0.42 0.96,-0.85 1.59,-1.12 0.24,-0.1 0.47,-0.17 0.69,-0.24 0.58,-0.19 1,-0.32 1.29,-0.83 0.09,-0.17 0.12,-0.29 0.16,-0.43 0.09,-0.38 0.21,-0.7 0.79,-1.07 0.19,-0.12 0.4,-0.22 0.61,-0.31 0.16,-0.07 0.31,-0.13 0.46,-0.23 0.8,-0.51 0.72,-1.72 0.53,-2.83 -0.04,-0.25 -0.05,-0.52 -0.07,-0.8 -0.02,-0.4 -0.04,-0.81 -0.16,-1.1 -0.08,-0.21 -0.2,-0.31 -0.4,-0.49l-0.21 -0.19c-0.29,-0.27 -0.57,-0.46 -0.93,-0.7l-0.11 -0.08 -0.34 -0.25 -0.29 -0.21c-0.12,-0.08 -0.25,-0.14 -0.38,-0.19 -0.2,-0.08 -0.39,-0.16 -0.58,-0.29 -0.14,-0.1 -0.23,-0.26 -0.23,-0.44 0,-0.67 0.61,-0.98 0.97,-1.16l0.28 -0.16c0.32,-0.23 0.59,-0.51 0.88,-0.79 0.36,-0.36 0.73,-0.72 1.19,-1.03l0.1 -0.07c0.31,-0.2 1.25,-0.83 1.41,-1.19 0.04,-0.1 0.05,-0.33 -0.36,-0.9 -0.23,-0.32 -0.49,-0.62 -0.75,-0.93 -0.4,-0.45 -0.8,-0.92 -1.13,-1.47 -0.29,-0.48 -0.32,-0.93 -0.36,-1.32 -0.01,-0.16 -0.02,-0.33 -0.06,-0.5 -0.05,-0.28 -0.11,-0.54 -0.18,-0.8 -0.14,-0.56 -0.28,-1.14 -0.26,-1.85 0.01,-0.32 0.07,-0.61 0.13,-0.89 0.03,-0.16 0.07,-0.34 0.09,-0.52 0.01,-0.15 0.01,-0.3 0,-0.45 -0.01,-0.28 -0.03,-0.59 0.07,-0.91 0.08,-0.29 0.24,-0.51 0.38,-0.71 0.11,-0.15 0.21,-0.28 0.23,-0.4 -0.01,-0.19 -0.03,-0.33 0.01,-0.49 0.04,-0.17 0.11,-0.3 0.16,-0.38 0.06,-0.16 0.06,-0.33 0.06,-0.53l0.01 -0.3 -0.16 0.06c-0.36,0.11 -0.67,0.11 -0.95,0.11 -0.11,0 -0.22,0 -0.34,0.01 -0.67,0.04 -1.45,0.2 -2.04,0.43 -1.55,0.59 -3.77,0.27 -5.33,-0.22 -0.58,-0.19 -0.93,-0.34 -1.38,-0.71l-0.27 -0.2c-0.19,-0.13 -0.38,-0.27 -0.53,-0.42 -0.76,-0.75 -0.69,-2.08 -0.65,-3.05 0.01,-0.16 0.02,-0.31 0.02,-0.45 0.04,-1.89 0.83,-2.01 2.24,-2.01l1.64 0.02c1.41,0.01 2.88,0.03 4.32,0 0.5,-0.02 0.98,-0.07 1.47,-0.12 0.6,-0.06 1.25,-0.11 1.89,-0.12 0.71,0.01 1.02,0.14 1.22,0.92 0.17,0.67 0.15,1.36 0.13,2.02 0,0.21 -0.01,0.43 -0.01,0.63 0.01,0.64 -0.04,1.27 -0.1,1.88l0.1 0.03c0.14,0.05 0.28,0.1 0.38,0.1 1.21,0.08 2.66,-0.13 3.13,-0.78 0.65,-0.88 0.81,-2.13 0.4,-3.04 -0.43,-0.94 -0.58,-1.7 -0.53,-2.62 0.04,-0.61 0.27,-1.11 0.5,-1.59 0.08,-0.16 0.16,-0.33 0.23,-0.5 0.06,-0.14 0.13,-0.3 0.2,-0.47 0.21,-0.45 0.46,-1.02 0.46,-1.39 -0.01,-0.24 -0.14,-0.48 -0.3,-0.77 -0.11,-0.19 -0.21,-0.39 -0.29,-0.6 -0.06,-0.14 -0.05,-0.3 0.03,-0.44 0.07,-0.14 0.2,-0.23 0.36,-0.26 0.21,-0.05 0.41,-0.05 0.59,-0.04l0.2 0 0.06 0 0.3 0.1c0.19,-0.11 0.4,-0.19 0.59,-0.24 0.27,-0.08 0.95,-0.23 1.37,0.02 0.21,0.13 0.32,0.31 0.4,0.44l0.07 0.1c0.07,0.05 0.22,0.05 0.4,0.04l0.13 0c0.23,0 0.23,0 0.3,-0.4 0.06,-0.41 0.17,-1.03 0.85,-1.34 0.72,-0.32 1.93,0.11 1.98,0.13 0.22,0.07 0.39,0.19 0.55,0.3l0.3 0.17 0.11 0c0.11,-0.01 0.26,-0.02 0.43,0.01 0.16,0.04 0.3,0.09 0.44,0.14 0.21,0.08 0.32,0.12 0.49,0.1l0.2 -0.08c0.16,-0.07 0.38,-0.14 0.62,-0.15 0.08,-0.19 0.19,-0.38 0.36,-0.56 0.29,-0.33 0.35,-0.61 0.43,-1.04 0.05,-0.23 0.1,-0.47 0.18,-0.74 0.17,-0.53 0.51,-0.87 0.8,-1.17 0.19,-0.18 0.37,-0.36 0.49,-0.57 0.37,-0.66 0.27,-1.17 -0.29,-1.55 -0.38,-0.26 -0.88,-0.39 -1.4,-0.53 -0.61,-0.16 -1.24,-0.32 -1.79,-0.72l-60.79 0z"/>
    <path class="fil0" d="M166.86 15.52l-0.22 0c-0.62,0 -1.16,0.05 -1.72,0.12 -0.51,0.05 -1.03,0.1 -1.56,0.11 -1.45,0.04 -2.93,0.02 -4.36,0.01l-1.63 -0.02 -0.24 0c-0.91,0 -0.91,0.07 -0.93,0.97 0,0.14 -0.01,0.31 -0.02,0.48 -0.03,0.73 -0.09,1.83 0.33,2.25 0.12,0.11 0.26,0.21 0.4,0.3 0.11,0.09 0.23,0.17 0.33,0.25 0.32,0.26 0.54,0.36 1.03,0.51 1.32,0.43 3.33,0.75 4.63,0.25 0.69,-0.27 1.58,-0.45 2.36,-0.5 0.14,-0.01 0.28,-0.01 0.4,-0.01 0.25,0.01 0.44,0 0.64,-0.06l0.23 -0.12c0.11,-0.06 0.22,-0.12 0.35,-0.17 0.06,-0.63 0.11,-1.23 0.1,-1.85 0,-0.22 0.01,-0.44 0.01,-0.67 0.02,-0.62 0.04,-1.2 -0.1,-1.73l-0.03 -0.12z"/>
    <path class="fil1" d="M150.62 154.06l-0.23 0.1c-0.19,0.07 -0.39,0.13 -0.59,0.14 -0.13,0.01 -0.26,0.01 -0.39,0 -0.19,0 -0.36,0 -0.51,0.04l-0.1 0.02c-0.37,0.1 -0.68,0.17 -1.16,0.17 -0.13,-0.01 -0.22,-0.01 -0.28,-0.02l-0.17 0.14c-0.33,0.17 -0.72,0.18 -1.1,0.18 -0.24,0 -0.49,0.01 -0.63,0.05l-0.26 0.09c-0.26,0.1 -0.54,0.2 -0.92,0.22 -0.46,0.03 -0.76,0.13 -1.12,0.39 -0.21,0.14 -0.34,0.36 -0.5,0.61 -0.16,0.25 -0.34,0.54 -0.63,0.79 -1.04,0.9 -2.41,0.34 -3.32,-0.03l-0.59 -0.25c-0.99,-0.39 -2.02,-0.8 -2.85,-1.53 -0.54,-0.47 -2.19,0.37 -2.82,0.68l-0.16 0.09c-1.27,0.63 -2.61,0.51 -3.51,-0.31 -0.17,-0.15 -0.35,-0.37 -0.55,-0.61 -0.32,-0.38 -0.79,-0.95 -1.1,-0.97 -0.32,-0.03 -0.81,0.18 -1.24,0.35 -0.2,0.08 -0.39,0.15 -0.56,0.21 -0.52,0.17 -0.94,0.32 -1.24,0.71 -0.13,0.16 -0.2,0.33 -0.28,0.54 -0.05,0.12 -0.1,0.24 -0.15,0.37 -0.13,0.27 -0.3,0.47 -0.46,0.65l-0.25 0.32c-0.14,0.23 -0.24,0.48 -0.34,0.74 -0.16,0.42 -0.33,0.85 -0.64,1.24 -0.85,1.08 -2.21,1.59 -3.55,1.31 -1.02,-0.21 -1.02,-0.21 -1.57,0.58 -0.1,0.16 -0.21,0.42 -0.31,0.67 -0.24,0.59 -0.52,1.26 -1.14,1.48 -0.13,0.04 -0.26,0.06 -0.39,0.06 -0.26,0 -0.53,-0.08 -0.82,-0.24 -0.18,-0.11 -0.3,-0.23 -0.4,-0.33l-0.19 -0.16c-0.16,-0.08 -0.58,-0.12 -0.83,-0.15l-0.23 -0.02c-0.25,-0.03 -0.51,-0.04 -0.76,-0.05 -0.52,-0.01 -1.05,-0.01 -1.61,-0.22 -0.45,-0.16 -0.85,-0.39 -1.24,-0.61 -0.28,-0.16 -0.56,-0.32 -0.85,-0.44 -0.54,-0.24 -1.3,-0.47 -2.33,-0.71 -0.2,-0.05 -0.4,-0.07 -0.61,-0.09 -0.46,-0.04 -0.98,-0.08 -1.45,-0.39 -0.31,-0.2 -0.49,-0.48 -0.64,-0.7 -0.09,-0.14 -0.17,-0.26 -0.26,-0.33 -0.34,-0.31 -1.36,0.49 -1.91,0.92 -0.28,0.22 -0.54,0.41 -0.73,0.52 -0.12,0.07 -1.17,0.65 -1.86,0.14 -0.18,-0.14 -0.26,-0.34 -0.31,-0.49l-0.04 -0.1 -0.11 0.04 -0.14 0c-0.14,-0.01 -0.3,0.01 -0.45,0.02 -0.51,0.04 -1.21,0.1 -1.71,-0.57 -0.17,-0.23 -0.25,-0.41 -0.31,-0.54 -0.08,-0.17 -0.08,-0.18 -0.31,-0.28 -0.36,-0.15 -0.67,-0.34 -0.97,-0.53 -0.21,-0.14 -0.43,-0.27 -0.66,-0.39 -0.76,-0.38 -1.07,-0.39 -1.9,-0.28 -0.25,0.03 -0.49,0.09 -0.73,0.15 -0.35,0.09 -0.71,0.18 -1.1,0.21 -0.14,0.01 -0.28,0 -0.43,-0.01l-0.16 -0.01 -0.14 0.12 -0.01 0.32c-0.02,0.44 -0.04,0.87 0.06,1.24 0.08,0.28 0.17,0.48 0.28,0.7 0.17,0.34 0.36,0.73 0.4,1.37 0.11,1.64 -0.56,3.2 -1.3,4.64 -0.22,0.43 -0.34,0.73 -0.48,1.18 -0.06,0.21 -0.1,0.5 -0.13,0.79 -0.05,0.39 -0.11,0.79 -0.24,1.13 0.38,0.03 0.74,0.06 1.11,0.09 0.29,0.03 0.57,0.06 0.86,0.08 0.19,0.02 0.38,0.09 0.54,0.15l0.26 0.09c0.02,-0.18 0.05,-0.35 0.15,-0.52 0.2,-0.34 0.63,-0.64 1.02,-0.9 0.35,-0.17 0.62,-0.36 0.86,-0.58l0.26 -0.28 0.22 -0.14c0.71,-0.23 1.33,0.24 1.79,0.65 0.76,-0.59 1.38,-0.59 1.78,-0.46 0.22,0.06 0.37,0.27 0.38,0.5 0,0.34 -0.07,0.67 -0.14,0.99 -0.15,0.71 -0.18,1 0.15,1.24 0.48,0.37 1.88,-0.15 2.55,-0.4l0.61 -0.22c0.58,-0.22 1.24,-0.46 1.96,-0.29 0.28,0.06 0.54,0.18 0.76,0.28 0.12,0.06 0.25,0.11 0.36,0.15 0.37,0.14 0.71,0.3 1.04,0.46 0.43,0.21 0.83,0.4 1.31,0.54 0.34,0.09 0.68,0.18 1.02,0.28 1.5,0.4 3.05,0.82 4.42,1.66 1.03,0.64 1.71,1.51 2.23,2.28 0.16,0.24 0.3,0.48 0.43,0.73 0.24,0.43 0.44,0.81 0.79,1.09 0.53,0.42 1.45,0.58 2.25,0.71 0.19,0.03 0.38,0.06 0.55,0.09 0.51,0.1 0.85,0.26 1.2,0.44l0.33 0.15c0.93,0.42 1.41,0.78 1.83,1.83l0.15 0.3c0.13,0.23 0.27,0.48 0.32,0.79 0.04,0.26 0.01,0.5 -0.02,0.71 -0.02,0.16 -0.04,0.31 -0.02,0.42 0.06,0.33 0.54,0.72 0.9,1l0.15 0.13c0.34,0.27 0.84,0.39 1.37,0.52 0.5,0.12 1.01,0.24 1.49,0.51 0.92,0.52 1.07,1.34 1.2,2.06l0.03 0.16c0.03,0.16 0.08,0.24 0.16,0.38 0.09,0.14 0.17,0.29 0.24,0.49 0.06,0.18 0.07,0.36 0.07,0.52 0.17,-0.05 0.35,-0.12 0.52,-0.19 0.29,-0.11 0.6,-0.23 0.9,-0.27 1.14,-0.15 2.5,-0.35 3.93,-0.63 0.36,-0.07 0.72,-0.18 1.08,-0.29 0.59,-0.18 1.2,-0.37 1.84,-0.41l0.19 -0.01c0.84,-0.07 1.69,-0.1 2.12,0.4 0.09,0.11 0.13,0.24 0.12,0.38 -0.03,0.54 -0.34,0.97 -0.61,1.35 -0.13,0.19 -0.26,0.38 -0.33,0.54 -0.07,0.16 -0.13,0.33 -0.19,0.5 -0.12,0.36 -0.25,0.74 -0.49,1.09 -0.37,0.53 -0.79,1.02 -1.2,1.5 -0.48,0.56 -0.92,1.09 -1.29,1.66 -0.2,0.31 -0.44,0.57 -0.68,0.83 -0.27,0.29 -0.53,0.58 -0.68,0.89 -0.16,0.34 -0.23,1.07 -0.13,1.48l0.06 0.09c0.23,0.14 0.8,0.11 1.69,-0.1 0.16,-0.04 0.34,0 0.46,0.11 0.47,0.4 0.26,0.98 0.12,1.37 -0.05,0.13 -0.13,0.37 -0.13,0.47l0.15 -0.01c0.11,0 0.24,0 0.38,0.05 0.16,0.05 0.31,0.13 0.47,0.21 0.16,0.08 0.31,0.15 0.46,0.18 0.13,0.02 0.25,0.04 0.38,0.06 0.44,0.06 0.94,0.13 1.37,0.39 0.22,0.13 0.39,0.29 0.57,0.44l0.21 -0.31c0.36,-0.51 0.83,-0.85 1.29,-1.18 0.29,-0.21 0.56,-0.4 0.79,-0.63 0.17,-0.17 0.32,-0.34 0.47,-0.5 0.33,-0.36 0.64,-0.69 1.03,-1.02 0.37,-0.3 0.69,-0.71 1.02,-1.13 0.56,-0.73 1.14,-1.49 2.1,-1.86 0.18,-0.07 0.33,-0.11 0.48,-0.14 0.19,-0.05 0.3,-0.08 0.44,-0.19 0.26,-0.19 0.52,-0.51 0.78,-0.82 0.2,-0.24 0.4,-0.47 0.6,-0.67 2.18,-2.14 2.85,-4.75 3.5,-7.94 0.59,-2.91 0.78,-5.94 0.58,-9.55 -0.04,-0.9 -0.02,-1.81 0,-2.69 0.02,-0.69 0.04,-1.36 0.03,-2.04 -0.04,-1.58 -0.27,-3.43 -0.74,-5.81l-0.06 -0.28c-0.23,-1.13 -0.44,-2.21 -0.04,-3.52 0.15,-0.51 0.37,-0.96 0.59,-1.4 0.2,-0.39 0.39,-0.77 0.52,-1.17 0.09,-0.28 0.24,-0.54 0.4,-0.79 0.19,-0.33 0.4,-0.67 0.33,-0.88 -0.04,-0.14 -0.12,-0.23 -0.22,-0.36 -0.17,-0.21 -0.4,-0.51 -0.45,-1.02 -0.13,0.08 -0.28,0.11 -0.43,0.07z"/>
    <path class="fil1" d="M91.11 110.84c-0.28,0.55 -0.55,1.01 -0.96,1.49 -0.31,0.38 -0.49,0.81 -0.69,1.35l-0.07 0.2c-0.25,0.67 -0.5,1.37 -0.92,2.03 -0.12,0.2 -0.26,0.36 -0.4,0.51l-0.2 0.23c-0.16,0.21 -0.24,0.45 -0.34,0.74 -0.08,0.22 -0.16,0.44 -0.26,0.65 -0.13,0.24 -0.23,0.49 -0.35,0.74 -0.23,0.52 -0.46,1.05 -0.8,1.55 -0.13,0.19 -0.26,0.36 -0.38,0.52 -0.31,0.41 -0.53,0.7 -0.67,1.2 -0.05,0.17 -0.09,0.33 -0.12,0.5 -0.09,0.4 -0.18,0.83 -0.41,1.23 -0.12,0.22 -0.26,0.44 -0.4,0.65 -0.17,0.27 -0.35,0.54 -0.5,0.85l-0.05 0.13c-0.1,0.27 -0.18,0.47 -0.33,0.61 -0.17,0.15 -0.37,0.19 -0.52,0.22 -0.25,0.12 -0.42,0.39 -0.43,0.52 -0.01,0.27 -0.23,0.49 -0.5,0.51l-0.22 0.09c0.49,0.79 0.62,1.66 0.74,2.51 0.02,0.2 0.05,0.39 0.08,0.55 0.08,0.55 0.16,1.01 0.12,1.65l-0.06 0.2c-0.19,0.38 -0.24,0.76 -0.16,1.18l0.28 0.84c0.09,0.44 0.14,0.84 0.18,1.25 0.04,0.29 0.08,0.58 0.12,0.86 0.18,1.09 -0.47,1.84 -0.98,2.31 -0.26,0.18 -0.47,0.34 -0.66,0.51 -0.11,0.45 -0.28,0.87 -0.53,1.27 -0.2,0.3 -0.41,0.48 -0.59,0.62 -0.12,0.1 -0.22,0.18 -0.3,0.29 -0.2,0.27 -0.31,0.59 -0.44,0.94 -0.1,0.29 -0.2,0.57 -0.35,0.84 -0.09,0.17 -0.18,0.31 -0.27,0.44 -0.19,0.29 -0.3,0.47 -0.34,0.86 -0.12,1 -0.16,2.49 -0.02,3.38 0.07,0.39 0.31,0.88 0.53,1.31l0.22 0.46 0.11 0.21c-0.02,-0.03 0.12,0 0.25,0.03 0.85,0.18 1.26,-0.09 1.88,-0.49 0.26,-0.17 0.54,-0.35 0.87,-0.51 0.16,-0.08 0.35,-0.21 0.56,-0.35 0.8,-0.52 2.01,-1.32 3.05,-0.5 0.46,0.35 0.46,0.8 0.47,1.07l0.01 0.16c0.42,0.37 0.79,0.78 1.11,1.24 0.28,0.51 0.43,1.01 0.5,1.53 0.39,1.55 0.61,3.11 0.78,4.57 0.16,-0.01 0.31,-0.01 0.45,0l0.28 0.01c0.29,-0.02 0.59,-0.09 0.91,-0.17 0.28,-0.07 0.56,-0.14 0.85,-0.18 1,-0.14 1.53,-0.1 2.51,0.38 0.27,0.14 0.51,0.29 0.76,0.44 0.27,0.17 0.53,0.34 0.81,0.46 0.57,0.24 0.72,0.5 0.86,0.81 0.05,0.11 0.1,0.21 0.2,0.35 0.13,0.17 0.27,0.19 0.78,0.14 0.18,-0.01 0.36,-0.02 0.56,-0.02 0.29,0 0.6,0 0.88,0.2 0.23,0.15 0.32,0.4 0.38,0.56l0 0.01c0.12,0 0.4,-0.07 0.64,-0.21 0.16,-0.1 0.37,-0.26 0.61,-0.45 0.9,-0.7 2.26,-1.76 3.26,-0.88 0.2,0.17 0.33,0.37 0.44,0.55 0.12,0.16 0.21,0.31 0.34,0.39 0.25,0.17 0.58,0.2 0.96,0.23 0.26,0.02 0.52,0.05 0.76,0.1 1.09,0.26 1.91,0.51 2.51,0.78 0.33,0.14 0.64,0.31 0.95,0.49 0.37,0.21 0.71,0.41 1.08,0.54 0.39,0.14 0.82,0.15 1.27,0.16 0.29,0 0.58,0.01 0.87,0.04l0.21 0.03c0.38,0.04 0.86,0.08 1.19,0.25 0.21,0.1 0.36,0.25 0.47,0.36l0.17 0.15c0.15,0.09 0.27,0.13 0.34,0.11 0.17,-0.06 0.37,-0.56 0.51,-0.88 0.12,-0.3 0.25,-0.62 0.42,-0.87 0.84,-1.21 1.29,-1.3 2.65,-1.02 0.96,0.2 1.9,-0.15 2.51,-0.93 0.21,-0.27 0.35,-0.61 0.49,-0.97 0.12,-0.3 0.24,-0.6 0.4,-0.89 0.1,-0.17 0.24,-0.33 0.37,-0.48 0.12,-0.14 0.23,-0.27 0.29,-0.4l0.13 -0.3c0.1,-0.25 0.21,-0.54 0.44,-0.82 0.48,-0.62 1.13,-0.86 1.74,-1.06 0.15,-0.05 0.33,-0.12 0.51,-0.19 0.55,-0.21 1.19,-0.45 1.69,-0.42 0.76,0.05 1.36,0.77 1.84,1.36 0.17,0.19 0.31,0.38 0.45,0.5 0.68,0.61 1.65,0.48 2.33,0.14l0.16 -0.08c1.02,-0.52 2.91,-1.47 3.98,-0.54 0.71,0.62 1.6,0.97 2.55,1.35l0.53 0.21c0.99,0.41 1.79,0.69 2.3,0.25 0.16,-0.15 0.29,-0.34 0.42,-0.56 0.19,-0.29 0.41,-0.64 0.78,-0.9 0.53,-0.38 1.02,-0.54 1.68,-0.58 0.23,-0.01 0.38,-0.07 0.61,-0.16l0.29 -0.1c0.3,-0.1 0.63,-0.11 0.95,-0.11 0.15,0 0.31,0 0.44,-0.02 0.08,-0.14 0.22,-0.25 0.39,-0.28 0.27,-0.04 0.36,-0.04 0.52,-0.02 0.04,0.01 0.1,0.01 0.24,0.02 0.37,0.02 0.52,-0.04 0.87,-0.13l0.1 -0.03c0.3,-0.08 0.57,-0.07 0.81,-0.06l0.31 0 0.28 -0.09c0.28,-0.1 0.59,-0.21 0.9,-0.12l0.14 0.08c0.04,-0.41 0.1,-0.82 0.18,-1.21l0.07 -0.36c0.11,-0.56 0.27,-1.01 0.43,-1.49l0.12 -0.34c0.16,-0.46 0.1,-0.74 0.01,-1.17 -0.05,-0.25 -0.1,-0.52 -0.12,-0.84 -0.01,-0.17 0.07,-0.35 0.22,-0.45 0.98,-0.72 2.1,-1.22 3.18,-1.71 0.51,-0.23 1.04,-0.47 1.54,-0.72 0.31,-0.17 0.6,-0.34 0.88,-0.52 -0.02,-0.44 -0.07,-0.87 -0.13,-1.36 -0.02,-0.14 -0.03,-0.23 -0.04,-0.33 -0.01,-0.22 -0.06,-0.69 -0.18,-0.78 -0.09,-0.06 -0.4,-0.08 -0.58,-0.09 -0.18,-0.02 -0.36,-0.03 -0.5,-0.06 -0.2,-0.04 -0.4,-0.09 -0.6,-0.13 -0.4,-0.1 -0.79,-0.19 -1.18,-0.21 -0.16,-0.01 -0.34,0 -0.54,0.02 -0.81,0.03 -1.71,0.08 -2.14,-0.52 -0.24,-0.33 -0.25,-0.76 -0.05,-1.27 0.13,-0.33 0.29,-0.64 0.45,-0.95 0.19,-0.38 0.36,-0.73 0.49,-1.1 0.42,-1.16 0.45,-1.59 0.42,-1.76l-0.27 0.01 -0.13 0c-0.65,-0.04 -1.3,-0.09 -1.95,-0.17 -0.55,-0.04 -1.1,-0.09 -1.66,-0.15l-0.87 -0.08c-0.55,-0.08 -1.07,-0.09 -1.58,-0.01 -0.54,0.09 -1.09,0.16 -1.64,0.21 -0.6,-0.05 -1.05,-0.27 -1.46,-0.67 -0.74,-0.7 -0.8,-1.62 -0.8,-2.42l0 -0.71c0,-1.1 0.01,-2.14 -0.14,-3.21 -0.05,-0.38 -0.08,-0.77 -0.11,-1.17 -0.04,-0.72 -0.09,-1.41 -0.3,-2l-0.22 -0.63c-0.23,-0.67 -0.45,-1.3 -0.74,-1.91 -0.26,-0.56 -0.4,-1.02 -0.55,-1.55l-0.1 -0.35c-0.15,-0.52 -0.37,-1.02 -0.59,-1.55 -0.2,-0.46 -0.4,-0.92 -0.55,-1.4 -0.53,-1.59 -1.33,-3.15 -2.37,-4.64 -0.18,-0.24 -0.35,-0.48 -0.53,-0.72 -0.38,-0.51 -0.77,-1.05 -1.11,-1.6 -0.51,-0.84 -1.01,-1.08 -2.11,-1.48 -1.06,-0.39 -2.18,-0.29 -3.37,-0.19 -0.68,0.06 -1.39,0.12 -2.09,0.09 -0.86,-0.04 -1.7,-0.26 -2.51,-0.47 -0.77,-0.21 -1.49,-0.4 -2.24,-0.44 -2.01,-0.12 -3.74,-0.36 -5.44,-0.73 -1.49,-0.34 -2.87,-0.63 -4.37,-0.61 -0.89,0.01 -1.78,0 -2.67,0l-0.63 -0.01 -0.14 -0.02c-0.22,-0.07 -0.37,-0.04 -0.53,0.07 -0.53,0.31 -1.05,0.29 -1.49,-0.03l-0.3 -0.01c-0.46,-0.01 -0.53,-0.01 -1.09,0.29l-0.32 0.18c-0.51,0.29 -1.08,0.61 -1.79,0.67 -1.21,0.1 -2.48,0.06 -3.7,0.02 -0.81,-0.02 -1.58,-0.02 -2.41,-0.05 -0.39,-0.02 -0.79,-0.04 -1.12,0.04 -0.26,0.07 -0.53,0.11 -0.8,0.14 -0.25,0.04 -0.5,0.07 -0.75,0.14 -0.25,0.07 -0.46,0.15 -0.67,0.23 -0.44,0.16 -0.9,0.33 -1.53,0.35 -0.17,0.09 -0.33,0.19 -0.5,0.28 -0.71,0.38 -1.33,0.7 -1.65,1.33z"/>
    <path class="fil0" d="M81.02 126.47c0.09,-0.05 0.2,-0.11 0.32,-0.16 0.15,-0.42 0.48,-0.78 0.79,-0.97 0.14,-0.09 0.29,-0.12 0.41,-0.14l0 0 0.06 -0.16 0.09 -0.22c0.16,-0.34 0.36,-0.65 0.56,-0.96 0.12,-0.2 0.25,-0.39 0.36,-0.6 0.16,-0.26 0.22,-0.58 0.3,-0.94 0.04,-0.18 0.08,-0.36 0.14,-0.55 0.19,-0.7 0.51,-1.11 0.84,-1.56 0.12,-0.15 0.24,-0.3 0.36,-0.48 0.28,-0.42 0.49,-0.88 0.71,-1.38 0.11,-0.26 0.23,-0.53 0.36,-0.78 0.09,-0.17 0.15,-0.35 0.21,-0.53 0.11,-0.33 0.24,-0.7 0.51,-1.04l0.25 -0.29c0.1,-0.11 0.2,-0.21 0.29,-0.36 0.35,-0.57 0.58,-1.18 0.82,-1.84l0.07 -0.2c0.22,-0.61 0.45,-1.16 0.87,-1.67 0.34,-0.4 0.57,-0.79 0.83,-1.28 0.47,-0.93 1.3,-1.36 2.09,-1.79 0.22,-0.12 0.45,-0.23 0.66,-0.36 0.42,-0.26 0.83,-0.54 1.24,-0.82 1.12,-0.75 2.27,-1.53 3.61,-1.89 1.16,-0.3 2.14,-1.04 3.18,-1.83 0.3,-0.22 0.59,-0.44 0.88,-0.65l0.38 -0.27c0.46,-0.31 0.89,-0.61 1.27,-0.97 0.3,-0.31 0.47,-0.66 0.66,-1.07 0.1,-0.22 0.2,-0.45 0.33,-0.67 0.17,-0.29 0.36,-0.59 0.55,-0.89 0.39,-0.6 0.79,-1.22 0.98,-1.83l0.04 -0.26c0,-0.13 0.01,-0.29 0.08,-0.48 0.08,-0.24 0.24,-0.51 0.39,-0.77l0.17 -0.31c0.36,-0.7 0.96,-1.17 1.49,-1.59l0.18 -0.14c0.37,-0.29 0.56,-0.44 0.83,-0.86 0.14,-0.21 0.18,-0.37 0.23,-0.61 0.05,-0.2 0.09,-0.41 0.2,-0.67 0.12,-0.3 0.31,-0.54 0.48,-0.75 0.12,-0.15 0.24,-0.3 0.33,-0.47 0.17,-0.35 0.26,-0.7 0.36,-1.1l0.03 -0.13c0.15,-0.57 0.33,-1.27 0.69,-1.77 0.25,-0.35 0.61,-0.59 0.93,-0.79 0.13,-0.09 0.26,-0.17 0.37,-0.26 0.49,-0.37 0.49,-0.4 0.69,-1.08 0.08,-0.26 0.08,-0.47 0.09,-0.71 0.01,-0.24 0.01,-0.53 0.09,-0.82 0.1,-0.4 0.34,-0.71 0.55,-0.98 0.1,-0.13 0.21,-0.26 0.28,-0.41 0.16,-0.31 0.2,-0.66 0.23,-1.07l0.06 -0.51c0.07,-0.67 0.15,-1.43 0.62,-2.02 0.48,-0.59 1.04,-1 1.53,-1.33l0.2 -0.14c0.94,-0.64 1.91,-1.31 3.13,-1.51 0.84,-0.13 1.28,-0.27 1.41,-0.41 0.06,-0.05 0.04,-0.29 0.03,-0.47 -0.1,0 -0.22,-0.01 -0.35,-0.06 -0.27,-0.1 -0.41,-0.41 -0.31,-0.68 0.08,-0.24 0.33,-0.38 0.58,-0.34l0 -0.01c-0.02,-0.24 -0.03,-0.49 -0.05,-0.74 -0.04,-0.39 -0.08,-0.78 -0.1,-1.19 -0.15,-0.09 -0.24,-0.25 -0.24,-0.44l0 -0.02c0,-0.08 -0.03,-0.17 -0.09,-0.32 -0.06,-0.17 -0.15,-0.37 -0.16,-0.62 -0.02,-0.34 0.08,-0.62 0.16,-0.86 0.05,-0.15 0.1,-0.29 0.11,-0.41l-0.02 -0.16c-0.24,-0.03 -0.44,-0.23 -0.45,-0.49 -0.02,-0.45 0.01,-0.59 0.2,-0.91 -0.04,-0.42 -0.1,-0.86 -0.18,-1.24 -0.06,-0.26 -0.15,-0.32 -0.43,-0.52 -0.11,-0.07 -0.22,-0.15 -0.34,-0.25 -0.86,-0.69 -1.77,-1.25 -2.74,-1.83 -0.43,-0.26 -0.86,-0.52 -1.29,-0.8 -0.45,-0.28 -0.9,-0.57 -1.35,-0.85 -1.03,-0.64 -2.08,-1.3 -3.08,-2 -1.02,-0.72 -2.22,-1.1 -3.49,-1.5 -0.61,-0.19 -1.22,-0.38 -1.81,-0.62 -0.45,-0.17 -0.8,-0.44 -1.11,-0.68 -0.35,-0.28 -0.65,-0.51 -1.04,-0.59 -0.28,-0.05 -0.58,-0.07 -0.88,-0.09 -0.33,-0.03 -0.66,-0.05 -0.98,-0.11l-0.32 -0.07c-0.36,-0.07 -0.7,-0.13 -1.05,-0.16 -1.46,-0.09 -2.27,-1.13 -2.2,-2.86 0.03,-0.7 -0.01,-0.76 -0.55,-0.9 -0.22,-0.06 -0.43,-0.08 -0.65,-0.1 -0.31,-0.03 -0.64,-0.06 -0.98,-0.17 -0.12,-0.04 -0.22,-0.08 -0.32,-0.12 -0.13,-0.06 -0.22,-0.09 -0.34,-0.11 -0.21,-0.02 -0.39,-0.17 -0.45,-0.37 -0.07,-0.25 -0.09,-0.48 -0.11,-0.69 -0.02,-0.19 -0.03,-0.35 -0.08,-0.51l-0.1 -0.27c-0.08,-0.2 -0.18,-0.43 -0.21,-0.68 -0.03,-0.17 -0.02,-0.33 -0.02,-0.49 0.01,-0.21 0.01,-0.31 -0.05,-0.41 -0.07,-0.14 -0.31,-0.28 -0.52,-0.41 -0.17,-0.1 -0.35,-0.21 -0.48,-0.33 -0.16,-0.13 -0.28,-0.28 -0.41,-0.43 -0.15,-0.19 -0.25,-0.3 -0.38,-0.34 -0.16,-0.06 -0.76,0.02 -0.96,0.04l-0.12 0.02c-0.21,0.02 -0.42,0.11 -0.64,0.2 -0.25,0.09 -0.52,0.2 -0.84,0.25 -0.37,0.05 -0.74,0.03 -1.1,0.01 -0.18,-0.01 -0.38,-0.02 -0.55,-0.02l-0.16 0.01c-0.67,0 -1.2,0.02 -1.92,-0.5 -0.13,-0.09 -0.27,-0.17 -0.42,-0.25 -0.3,-0.17 -0.64,-0.36 -0.91,-0.66 -0.91,-1.04 -0.49,-2.56 -0.27,-3.17 0.3,-0.79 0.76,-1.48 1.22,-2.14 0.26,-0.4 0.53,-0.78 0.75,-1.19 0.1,-0.17 0.21,-0.36 0.33,-0.55 0.26,-0.43 0.55,-0.9 0.68,-1.35l-0.29 0.19c-0.21,0.18 -0.4,0.36 -0.59,0.54 -0.43,0.4 -0.87,0.8 -1.38,1.17 -0.62,0.43 -1.2,0.79 -1.77,1.08 -0.41,0.2 -0.76,0.45 -1.13,0.72 -0.22,0.16 -0.43,0.31 -0.66,0.46 -1.24,0.8 -2.09,-0.26 -2.66,-0.97 -0.37,-0.46 -0.75,-0.93 -1.11,-0.95 -0.4,-0.01 -1.11,0.34 -1.58,0.58 -0.18,0.09 -0.34,0.17 -0.48,0.23 -0.53,0.24 -0.82,0.39 -1.19,0.73 -0.43,0.4 -0.84,0.66 -1.55,0.68 -0.64,0.01 -1.08,-0.24 -1.47,-0.48 -0.12,-0.07 -0.25,-0.14 -0.39,-0.21 -0.6,-0.3 -1.28,-0.58 -1.81,-0.76 -0.23,-0.07 -0.49,-0.11 -0.76,-0.15 -0.28,-0.04 -0.55,-0.08 -0.83,-0.16 -0.4,-0.12 -0.74,-0.3 -1.05,-0.47l-0.26 -0.13c-0.49,-0.25 -1.03,-0.29 -1.65,-0.34 -0.18,-0.02 -0.37,-0.03 -0.56,-0.05 -0.18,-0.02 -0.36,-0.04 -0.54,-0.07 -0.37,-0.05 -0.73,-0.09 -1.1,-0.1 -0.14,0 -0.29,0.01 -0.45,0.03 -0.42,0.03 -0.88,0.06 -1.3,-0.08 -0.38,-0.14 -0.77,-0.37 -1.11,-0.58 -0.14,-0.08 -0.28,-0.17 -0.42,-0.24 -1.15,-0.62 -2.23,-0.84 -3.22,-0.65 -0.69,0.14 -1.28,0.15 -1.92,0.17l-0.51 0.01c-0.18,0.01 -0.36,0.05 -0.56,0.11 -0.2,0.05 -0.4,0.1 -0.62,0.13 -0.29,0.03 -0.58,0.02 -0.87,0 -0.15,-0.01 -0.3,-0.02 -0.45,-0.02 -0.97,0.02 -1.47,0.3 -2.08,1.16 -0.93,1.29 -2.08,2.91 -3.42,4.17 -0.22,0.21 -0.39,0.41 -0.47,0.57l-0.09 0.25c-0.06,0.27 -0.17,0.67 -0.63,0.91 -0.16,0.08 -0.71,0.23 -0.88,0.27 -0.63,0.18 -1.09,-0.02 -1.49,-0.25 -0.38,-0.22 -0.61,-0.3 -1.16,-0.38 -0.41,-0.07 -0.6,-0.2 -0.79,-0.33l-0.2 -0.13c-0.17,-0.1 -0.4,-0.18 -0.63,-0.26l-0.25 -0.09c0.5,1.21 0.82,2.61 0.93,3.73 0.11,1.03 0.12,2.07 0.13,3.08 0.01,1.1 0.02,2.25 0.16,3.37l0.02 0.17c0.12,0.87 0.21,1.77 -0.05,2.33 -0.1,0.19 -0.25,0.31 -0.36,0.4 -0.13,0.18 -0.2,0.38 -0.27,0.58 -0.07,0.2 -0.14,0.41 -0.23,0.6 -0.23,0.54 -0.58,0.96 -0.91,1.37 -0.31,0.38 -0.61,0.74 -0.78,1.17l-0.07 0.25c-0.06,0.23 -0.13,0.53 -0.37,0.78 -0.23,0.26 -0.51,0.41 -0.76,0.54 -0.22,0.12 -0.42,0.22 -0.55,0.37 -0.69,0.79 -1.44,2.02 -1.47,2.86 -0.02,0.57 0.02,1.05 0.16,1.7 0.07,0.3 0.07,0.65 0.07,0.99 0,0.31 0,0.67 0.07,0.87 0.05,0.16 0.14,0.21 0.42,0.33 0.38,0.15 1.08,0.45 0.93,1.54 -0.1,0.79 -0.66,1.2 -1.12,1.53 -0.27,0.2 -0.53,0.38 -0.64,0.61 -0.31,0.62 -0.27,1.14 0.16,2.01 0.11,0.24 0.25,0.43 0.38,0.61 0.26,0.37 0.56,0.78 0.63,1.4 0.14,1.25 -0.21,1.98 -0.75,2.94 -0.53,0.92 -0.2,1.6 0.25,2.53 0.25,0.53 0.54,1.12 0.66,1.8 0.3,1.62 0.14,3.19 -0.02,4.7 -0.07,0.64 -0.14,1.27 -0.17,1.92 -0.02,0.39 -0.05,0.79 -0.08,1.18 -0.04,0.74 -0.09,1.49 -0.11,2.22 0,0.25 0.05,0.53 0.11,0.82 0.06,0.33 0.12,0.68 0.12,1.03 -0.01,0.33 -0.11,0.62 -0.2,0.88 -0.04,0.13 -0.09,0.25 -0.11,0.38 -0.21,1 -0.29,2.59 -0.01,3.5 0.2,0.07 0.39,0.15 0.57,0.23 0.21,0.09 0.43,0.19 0.65,0.25 0.98,0.24 2.1,0.29 3.18,0.35l0.56 0.02c1.29,0.07 3.19,0.13 4.92,-0.13 0.28,-0.04 0.57,-0.08 0.86,-0.12 0.61,-0.08 1.25,-0.16 1.84,-0.31 0.16,-0.04 0.33,-0.11 0.51,-0.18 0.37,-0.14 0.81,-0.31 1.22,-0.3 0.82,0.02 1.3,0.56 1.68,1 0.42,0.48 0.69,0.76 1.22,0.73 0.17,-0.08 0.58,-0.3 0.85,-0.45 0.19,-0.09 0.33,-0.17 0.35,-0.17 0.5,-0.2 0.99,-0.33 1.46,-0.46 0.28,-0.08 0.57,-0.15 0.86,-0.24 1,-0.32 1.58,-0.47 2.7,-0.02 2.61,1.05 4.4,2.89 5.61,5.79 0.21,0.49 0.25,0.97 0.29,1.45 0.04,0.32 0.06,0.63 0.15,0.91l0.08 0.3c0.2,0.64 0.39,1.31 0.47,2.04 0.08,0.76 0.18,1.47 0.3,2.22 0.06,0.32 0.06,0.64 0.06,0.94 0.01,0.45 0.02,0.87 0.18,1.23 0.43,0.93 0.45,1.09 0.22,2.2 -0.1,0.47 -0.09,0.71 0,1.22 0.22,1.35 0.25,2.6 0.28,3.93 0.02,0.84 0.2,2.7 1.47,3.38 0.53,0.29 1.29,-0.16 2.03,-0.6 0.31,-0.19 0.61,-0.37 0.89,-0.49 0.62,-0.29 1.22,-0.45 1.8,-0.6 0.68,-0.18 1.31,-0.35 1.94,-0.7 0.31,-0.18 0.62,-0.29 0.93,-0.41 0.29,-0.1 0.56,-0.2 0.8,-0.34l0.12 -0.17c0.14,-0.23 0.52,-0.84 1.4,-0.44 0.17,0.07 0.28,0.23 0.31,0.4 0.14,0.95 1.03,1.99 1.86,2.6l0.29 0.24 0.02 -0.02 0.11 -0.06z"/>
    <path class="fil0" d="M39.76 42.99l0.12 0.07c0.16,0.08 0.34,0.13 0.51,0.19 0.28,0.09 0.56,0.18 0.83,0.34l0.28 0.18c0.14,0.1 0.18,0.13 0.35,0.15 0.6,0.1 0.96,0.19 1.52,0.51 0.31,0.18 0.46,0.21 0.69,0.15 0.12,-0.03 0.56,-0.15 0.68,-0.2 0.01,-0.01 0.03,-0.03 0.08,-0.23 0.03,-0.13 0.08,-0.3 0.17,-0.47 0.17,-0.33 0.47,-0.65 0.68,-0.85 1.27,-1.19 2.39,-2.76 3.28,-4.02 0.81,-1.13 1.63,-1.58 2.94,-1.6 0.18,0 0.35,0.01 0.53,0.02 0.23,0.01 0.46,0.03 0.68,0 0.17,-0.02 0.32,-0.06 0.47,-0.1 0.23,-0.06 0.49,-0.13 0.79,-0.14l0.53 -0.01c0.61,-0.02 1.14,-0.03 1.73,-0.15 1.24,-0.24 2.57,0.01 3.94,0.76 0.14,0.08 0.29,0.17 0.45,0.26 0.32,0.19 0.65,0.39 0.93,0.49 0.2,0.07 0.55,0.05 0.85,0.02 0.2,-0.02 0.38,-0.02 0.55,-0.03 0.43,0.01 0.84,0.06 1.23,0.11 0.17,0.03 0.34,0.05 0.51,0.07 0.18,0.02 0.36,0.03 0.54,0.04 0.67,0.06 1.36,0.11 2.04,0.46l0.27 0.14c0.29,0.15 0.56,0.29 0.86,0.38 0.22,0.07 0.46,0.1 0.69,0.13 0.3,0.05 0.61,0.09 0.92,0.19 0.59,0.2 1.31,0.49 1.96,0.82 0.17,0.08 0.31,0.17 0.46,0.25 0.34,0.21 0.56,0.35 0.9,0.33 0.36,-0.01 0.54,-0.09 0.86,-0.4 0.5,-0.46 0.91,-0.66 1.48,-0.92 0.13,-0.06 0.27,-0.13 0.43,-0.21 0.64,-0.32 1.43,-0.74 2.11,-0.69 0.84,0.04 1.4,0.74 1.89,1.35 0.73,0.91 0.91,0.97 1.25,0.75 0.21,-0.14 0.42,-0.29 0.62,-0.44 0.39,-0.28 0.79,-0.57 1.27,-0.81 0.53,-0.26 1.06,-0.59 1.64,-1 0.45,-0.32 0.85,-0.69 1.26,-1.08 0.2,-0.18 0.41,-0.37 0.62,-0.56 0.51,-0.44 1.1,-0.6 1.71,-0.45 0.23,0.05 0.39,0.25 0.4,0.48 0.06,0.91 -0.45,1.75 -0.9,2.48 -0.1,0.18 -0.21,0.35 -0.3,0.51 -0.24,0.44 -0.53,0.87 -0.8,1.27 -0.44,0.65 -0.86,1.25 -1.1,1.92 -0.13,0.33 -0.49,1.47 0.07,2.1 0.14,0.17 0.38,0.3 0.63,0.44 0.18,0.1 0.36,0.2 0.52,0.31 0.43,0.31 0.66,0.31 1.28,0.3l0.17 -0.01c0.19,0 0.41,0.01 0.62,0.03 0.31,0.01 0.63,0.03 0.89,-0.01 0.19,-0.03 0.39,-0.1 0.6,-0.19 0.26,-0.1 0.56,-0.22 0.9,-0.26l0.12 -0.02c0.55,-0.07 1.07,-0.12 1.44,0 0.41,0.15 0.66,0.44 0.85,0.68l0.27 0.29c0.1,0.09 0.23,0.16 0.35,0.24 0.19,0.11 0.38,0.25 0.56,0.41 0.08,-0.1 0.14,-0.2 0.23,-0.39l0.14 -0.28c0.07,-0.15 0.17,-0.24 0.24,-0.31l-0.06 -0.25c-0.05,-0.13 -0.1,-0.26 -0.12,-0.38 -0.02,-0.12 -0.03,-0.25 -0.03,-0.38l-0.01 -0.22c-0.06,-0.13 -0.25,-0.32 -0.4,-0.47 -0.13,-0.12 -0.24,-0.23 -0.34,-0.35 -0.45,-0.55 -0.68,-1.2 -0.9,-1.83 -0.06,-0.14 -0.11,-0.28 -0.16,-0.42 -0.07,-0.13 -0.1,-0.26 -0.13,-0.36l-0.02 -0.08 -0.08 -0.28c0,-0.51 -0.07,-0.95 -0.15,-1.45l-0.08 -0.47c-0.06,-0.47 0,-0.96 0.18,-1.39 0.07,-0.15 0.15,-0.26 0.21,-0.34l0.08 -0.11 -0.02 -0.09c-0.01,-0.12 -0.03,-0.27 0.01,-0.44 0.18,-0.94 0.77,-1.55 1.33,-2.14 0.17,-0.18 0.34,-0.36 0.5,-0.54l0.47 -0.57c0.19,-0.22 0.38,-0.45 0.57,-0.67 0.41,-0.49 0.72,-0.7 1.19,-1.02 0.54,-0.38 0.64,-0.82 0.77,-1.57 0.04,-0.25 0.09,-0.51 0.15,-0.77 0.19,-0.71 0.18,-1.47 0.16,-2.27l-0.01 -0.54c-0.01,-0.48 0,-0.99 0.18,-1.52 0.17,-0.51 0.49,-0.85 0.8,-1.18l0.2 -0.21c0.44,-0.5 0.89,-0.86 1.46,-1.28 0.24,-0.18 0.45,-0.39 0.69,-0.62 0.24,-0.25 0.49,-0.5 0.79,-0.73 0.34,-0.25 0.67,-0.34 0.96,-0.42 0.18,-0.05 0.34,-0.09 0.49,-0.17 0.13,-0.08 0.26,-0.22 0.4,-0.37 0.16,-0.17 0.34,-0.37 0.58,-0.51 0.3,-0.18 0.62,-0.22 0.88,-0.25l0.32 -0.05c0.35,-0.1 0.72,-0.28 1.15,-0.56 0.74,-0.5 1.46,-1.15 2.12,-1.94 0.23,-0.27 0.5,-0.48 0.76,-0.68 0.29,-0.23 0.57,-0.44 0.71,-0.69 0.15,-0.25 0.19,-0.54 0.23,-0.89 0.06,-0.54 0.09,-1.04 0.12,-1.55 0.03,-0.72 0.07,-1.47 0.21,-2.2 0.18,-0.97 0.61,-1.88 1.15,-2.42 0.56,-0.57 1.23,-0.52 1.76,-0.47 0.23,0.02 0.45,0.04 0.65,0.01 0.14,-0.02 0.2,-0.06 0.38,-0.21l0.26 -0.21c0.25,-0.18 0.5,-0.3 0.74,-0.41 0.14,-0.06 0.28,-0.12 0.42,-0.2 0.4,-0.23 0.53,-0.54 0.73,-1.12 0.08,-0.24 0.17,-0.49 0.29,-0.74 0.51,-1.06 0.77,-1.87 0.88,-2.72 0.02,-0.25 0.05,-0.52 0.07,-0.81 0.06,-0.73 0.12,-1.54 0.33,-2.26l-114.71 0c0.07,0.68 0.05,1.38 0.02,2.06 -0.02,0.39 -0.03,0.78 -0.03,1.16 0.01,0.29 0.09,0.64 0.17,1.02 0.14,0.56 0.27,1.14 0.17,1.69 -0.05,0.29 -0.33,0.48 -0.6,0.43 -0.15,0 -0.6,0.31 -0.84,0.48 -0.35,0.24 -0.67,0.47 -0.99,0.54 -0.21,0.06 -0.42,0.1 -0.64,0.14 -0.5,0.11 -0.98,0.2 -1.42,0.44l-0.15 0.1c-0.13,0.15 -0.26,0.25 -0.62,0.37l-0.22 0.05 0.29 0.18 0.29 0.18c0.42,0.26 0.76,0.59 1.09,0.91 0.25,0.25 0.5,0.48 0.77,0.69 1.31,0.96 2.43,2.08 3.51,3.17l0.58 0.58c0.43,0.43 1.49,1.56 2.03,2.82 0.45,1.04 0.39,2.07 0.32,3.06 -0.04,0.68 -0.08,1.32 0.04,1.93l0.11 0.21c0.07,0.12 0.15,0.26 0.2,0.44 0.06,0.2 0.09,0.41 0.12,0.62 0.03,0.24 0.06,0.44 0.14,0.6 0.2,0.39 0.47,0.6 1,0.8 1.11,0.4 2.27,0.18 3.51,-0.05 0.75,-0.14 1.52,-0.28 2.32,-0.3 0.9,-0.02 1.79,-0.01 2.68,0 0.85,0.01 1.69,0.01 2.6,-0.02 1.01,-0.04 2.05,-0.07 3.02,0.12 0.98,0.19 1.73,0.26 2.62,0.26 0.93,0 1.58,0.13 2.28,0.27 0.23,0.05 0.47,0.1 0.72,0.15 0.26,0.05 0.45,0.28 0.44,0.55l0.13 0.16c0.13,0.07 0.27,0.15 0.41,0.27 0.29,0.25 0.59,0.57 0.61,0.98 0.02,0.4 -0.23,0.67 -0.44,0.9l-0.16 0.17c-0.14,0.17 -0.27,0.33 -0.4,0.5 -0.33,0.41 -0.67,0.84 -1.14,1.21l-0.14 0.11c-0.88,0.68 -1.12,0.87 -0.86,1.87 0.42,1.6 1.75,3.22 2.72,4.31 0.55,0.62 0.9,1.39 1.23,2.14 0.08,0.18 0.16,0.36 0.25,0.54 0.63,1.33 1.55,1.63 3.26,2.07 0.17,0.04 0.35,0.05 0.52,0.06 0.4,0.04 0.9,0.07 1.35,0.44 0.19,0.16 0.24,0.37 0.26,0.5l0.1 0.09 0.32 0.32c0.13,0.15 0.26,0.32 0.38,0.5 0.3,0 0.52,0.11 0.68,0.2z"/>
    <path class="fil0" d="M201.56 104.18c1.49,-0.14 3.17,-0.29 4.1,-1.15 0.14,-0.13 0.25,-0.28 0.38,-0.46l0.27 -0.35c0.6,-0.73 1.17,-0.88 1.86,-1.01 0.54,-0.1 1.04,-0.26 1.57,-0.44 0.45,-0.15 0.9,-0.29 1.36,-0.4 0.7,-0.16 1.38,-0.23 2.04,-0.3 0.99,-0.11 1.91,-0.21 2.81,-0.56 1.25,-0.49 2.18,-0.42 3.17,-0.33 0.39,0.03 0.82,0.06 1.3,0.07 0.31,0 0.64,0.01 0.99,0.03 1.13,0.05 2.41,0.1 3.28,-0.26 0.22,-0.09 0.5,-0.3 0.75,-0.49l0.32 -0.24c0.14,-0.1 0.27,-0.18 0.4,-0.27 0.35,-0.22 0.62,-0.39 0.84,-0.68 0.39,-0.5 0.46,-0.68 0.69,-1.36 0.18,-0.53 0.44,-1.13 0.77,-1.76 0.26,-0.51 0.51,-1 0.64,-1.46 0.08,-0.29 0.1,-0.58 0.12,-0.89 0.01,-0.19 0.03,-0.38 0.05,-0.58 0.13,-0.97 0.46,-1.43 1.12,-2.03 0.34,-0.27 0.59,-0.55 0.77,-0.89 0.11,-0.3 0.25,-0.66 0.38,-1.02l0.06 -0.11c0.29,-0.43 0.72,-0.85 1.11,-1.21l0.19 -0.19c0.24,-0.23 0.41,-0.48 0.58,-0.75 0.12,-0.18 0.24,-0.37 0.39,-0.56l0.23 -0.23 0.12 -0.11 -0.07 -0.31c0.03,-0.21 0.16,-0.36 0.33,-0.43l-0.05 -0.12c-0.11,-0.35 -0.16,-0.86 -0.21,-1.27l-0.03 -0.3c-0.17,-1.41 -0.06,-3 0.29,-4.35 0.32,-1.18 1.55,-1.61 1.95,-1.75 0.29,-0.1 0.59,-0.12 0.84,-0.14 0.35,-0.02 0.57,-0.04 0.74,-0.17 0.26,-0.2 0.37,-0.54 0.38,-1.17l0.01 -0.28c0.02,-1.22 0.06,-3.06 1.31,-3.87 0.42,-0.27 0.96,-0.35 1.43,-0.42 0.13,-0.02 0.25,-0.04 0.36,-0.06l0.12 -0.02c0.69,-0.13 0.71,-0.13 1.03,-0.63l0.15 -0.25c0.39,-0.59 0.62,-0.95 0.69,-1.63 0.08,-0.95 0.13,-1.81 -0.2,-2.67 -0.12,-0.3 -0.26,-0.6 -0.4,-0.9 -0.18,-0.38 -0.36,-0.76 -0.5,-1.16 -0.28,-0.47 -0.31,-1.06 -0.05,-1.63 0.07,-0.13 0.18,-0.23 0.32,-0.27l0.33 -0.11c0.51,-0.3 1.1,-0.33 1.63,-0.36 0.33,-0.02 0.64,-0.04 0.88,-0.11 0.54,-0.18 0.94,-0.47 1.35,-0.91 -0.56,-0.96 -1.31,-1.78 -2.46,-2.7 -0.11,-0.09 -0.24,-0.18 -0.37,-0.27 -0.55,-0.39 -1.24,-0.88 -1.36,-1.67 -0.02,-0.16 0.03,-0.33 0.15,-0.45l0.23 -0.22c0.45,-0.45 0.97,-0.95 1.13,-1.49 0.13,-0.4 0.14,-0.86 0.16,-1.35 0.01,-0.37 0.02,-0.74 0.07,-1.09 0.17,-1.08 0.9,-1.52 1.48,-1.87 0.3,-0.18 0.58,-0.35 0.8,-0.58 0.2,-0.22 0.35,-0.44 0.5,-0.67 0.3,-0.47 0.64,-1 1.43,-1.27 0.19,-0.07 0.37,-0.14 0.54,-0.2 0.52,-0.19 1.02,-0.38 1.66,-0.48 0.16,-0.03 0.3,-0.05 0.44,-0.08 0.74,-0.13 1.5,-0.27 2.31,0.17 0.05,-0.34 0.11,-0.67 0.17,-0.97 0.09,-0.42 0.07,-0.78 -0.04,-0.97 -0.05,-0.1 -0.09,-0.13 -0.27,-0.22 -0.12,-0.06 -0.26,-0.13 -0.41,-0.24 -0.26,-0.19 -0.49,-0.4 -0.73,-0.62 -0.13,-0.12 -0.25,-0.24 -0.38,-0.35 -0.16,-0.13 -0.37,-0.26 -0.59,-0.4 -0.67,-0.43 -1.44,-0.9 -1.56,-1.65 -0.11,-0.65 0.2,-1.4 0.44,-2l0.12 -0.3c0.25,-0.66 0.6,-1.52 1.07,-2.25 0.38,-0.58 0.83,-1.07 1.28,-1.55 0.74,-0.82 1.45,-1.58 1.65,-2.65 0.17,-0.9 0.46,-1.6 0.77,-2.33l0.19 -0.45 0.11 -0.31c0.08,-0.23 0.16,-0.49 0.3,-0.73 0.1,-0.16 0.23,-0.31 0.35,-0.45 0.11,-0.12 0.2,-0.22 0.26,-0.34 0.07,-0.14 0.12,-0.3 0.16,-0.47 0.11,-0.35 0.23,-0.76 0.54,-1.07 0.25,-0.26 0.57,-0.39 0.82,-0.49l0.32 -0.14 0.16 -0.09 0.1 -0.06 0.04 -0.16c0.07,-0.31 0.07,-0.31 -0.29,-0.57l-0.13 -0.09c-1.27,-0.93 -2.67,-1.71 -4.03,-2.47 -0.91,-0.51 -1.85,-1.03 -2.75,-1.6 -0.54,-0.34 -0.76,-0.46 -1.24,-0.49 -0.56,-0.04 -1.11,-0.1 -1.66,-0.32 -1.19,-0.5 -2.09,-0.74 -3.19,-0.54 -0.59,0.12 -1.1,0.2 -1.68,0.19 -0.18,-0.01 -0.34,-0.01 -0.5,0.01 -0.14,0.09 -0.29,0.21 -0.51,0.19 -0.87,-0.04 -0.93,-0.9 -0.96,-1.23l-0.02 -0.22c-0.07,-0.33 -0.2,-0.7 -0.33,-1.05 -0.07,-0.2 -0.15,-0.4 -0.21,-0.6l-0.08 -0.25c-0.34,-1.09 -0.86,-2.73 -1.6,-3.36 -0.8,-0.68 -1.49,-0.99 -2.39,-1.06 -0.33,-0.03 -0.66,-0.02 -0.99,-0.01 -0.3,0 -0.59,0.01 -0.88,0 -0.42,-0.02 -0.59,-0.09 -0.83,-0.21 -0.07,-0.03 -0.15,-0.07 -0.27,-0.12 -0.3,-0.12 -0.69,-0.12 -1.08,-0.12l-0.26 0c-0.36,0 -0.69,-0.07 -1.01,-0.12 -0.29,-0.06 -0.56,-0.11 -0.83,-0.11 -0.12,-0.01 -0.24,0 -0.35,0 -0.42,0.01 -0.86,0.02 -1.35,-0.16 -0.35,-0.13 -0.68,-0.3 -1,-0.47l-0.27 -0.14c-0.96,-0.5 -1.84,-1.14 -2.68,-1.76 -0.33,-0.24 -0.65,-0.48 -0.99,-0.71 -0.22,-0.16 -0.47,-0.28 -0.74,-0.41 -0.14,-0.06 -0.27,-0.13 -0.4,-0.2 -0.18,-0.09 -0.34,-0.2 -0.49,-0.31 -0.22,-0.15 -0.37,-0.26 -0.58,-0.29 -0.2,-0.03 -0.39,-0.05 -0.58,-0.07 -0.3,-0.03 -0.59,-0.06 -0.89,-0.12 -0.43,-0.1 -1.03,-0.12 -1.39,-0.06 -0.14,0.02 -0.32,0.13 -0.51,0.24 -0.17,0.1 -0.34,0.2 -0.51,0.27 -0.41,0.18 -0.87,0.23 -1.31,0.29 -0.22,0.03 -0.43,0.05 -0.64,0.1 -1.54,0.32 -2.68,0.4 -3.58,0.23 -0.62,-0.11 -0.98,-0.28 -1.33,-0.94l-0.07 -0.15c-0.29,-0.54 -0.65,-1.21 -0.54,-1.93 0.08,-0.48 0.28,-0.94 0.48,-1.38 0.23,-0.54 0.4,-0.95 0.4,-1.3l-8.23 0c-1.41,0.38 -2.76,0.85 -3.99,1.39 -0.9,0.4 -1.85,0.86 -2.64,1.6 -0.32,0.3 -0.62,0.61 -0.91,0.92 -0.55,0.58 -1.12,1.17 -1.83,1.69 -1.87,1.34 -3.35,2.32 -4.8,3.17 -0.43,0.25 -0.88,0.46 -1.33,0.66 -0.56,0.26 -1.08,0.51 -1.58,0.83 -0.27,0.19 -0.48,0.43 -0.72,0.7 -0.11,0.13 -0.22,0.25 -0.34,0.38 -0.11,0.11 -1.1,1.11 -1.79,0.75 -0.48,-0.24 -0.44,-0.8 -0.42,-1.06l0.01 -0.12c-0.01,-0.43 -0.01,-0.87 0,-1.31l0 -0.91 -0.01 -0.36 0 -0.33 -0.01 0c-0.13,0.06 -0.3,0.13 -0.49,0.16 -0.42,0.06 -0.74,-0.06 -1,-0.15l-0.31 -0.1c-0.23,0.01 -0.41,0.03 -0.61,-0.04 -0.24,-0.07 -0.42,-0.2 -0.59,-0.31l-0.31 -0.18c-0.45,-0.16 -1.03,-0.22 -1.18,-0.15 -0.15,0.07 -0.19,0.17 -0.25,0.54 -0.07,0.42 -0.21,1.28 -1.33,1.29l-0.11 0c-0.31,0 -0.67,0.01 -1.03,-0.22 -0.19,-0.13 -0.3,-0.31 -0.38,-0.43l-0.06 -0.1c-0.08,-0.01 -0.69,0.12 -0.87,0.25l-0.06 0.09c-0.18,0.19 -0.37,0.2 -0.56,0.15 0.11,0.24 0.2,0.52 0.2,0.83 0.02,0.61 -0.28,1.27 -0.54,1.85 -0.07,0.15 -0.14,0.29 -0.19,0.42 -0.08,0.2 -0.16,0.38 -0.25,0.56 -0.2,0.43 -0.38,0.8 -0.4,1.2 -0.05,0.75 0.08,1.34 0.43,2.12 0.58,1.27 0.37,2.92 -0.5,4.11 -0.96,1.3 -3.36,1.26 -4.06,1.21 -0.18,-0.01 -0.35,-0.06 -0.51,-0.11l-0.01 0.13 -0.01 0.31c0,0.24 0,0.51 -0.08,0.79 -0.03,0.12 -0.09,0.22 -0.13,0.29l-0.03 0.13c0.01,0.1 0.02,0.23 -0.01,0.39 -0.07,0.35 -0.26,0.62 -0.41,0.83 -0.11,0.14 -0.19,0.26 -0.23,0.37 -0.04,0.16 -0.03,0.36 -0.02,0.58 0.01,0.21 0.01,0.42 -0.01,0.62 -0.03,0.21 -0.07,0.41 -0.11,0.61 -0.04,0.23 -0.09,0.46 -0.1,0.71 -0.02,0.56 0.1,1.02 0.23,1.55 0.07,0.28 0.14,0.57 0.2,0.87 0.04,0.21 0.05,0.41 0.07,0.6 0.03,0.35 0.05,0.6 0.21,0.87 0.28,0.46 0.64,0.88 1.02,1.32 0.28,0.33 0.56,0.66 0.81,1 0.35,0.49 0.78,1.22 0.47,1.94 -0.26,0.59 -1.06,1.17 -1.79,1.65l-0.1 0.07c-0.38,0.25 -0.69,0.57 -1.03,0.9 -0.31,0.3 -0.62,0.61 -0.99,0.89 -0.12,0.09 -0.28,0.17 -0.44,0.26l-0.07 0.03c0.13,0.06 0.26,0.13 0.39,0.21 0.13,0.08 0.24,0.18 0.36,0.27l0.27 0.2 0.11 0.08c0.38,0.24 0.73,0.48 1.08,0.82l0.18 0.16c0.23,0.2 0.5,0.44 0.68,0.88 0.19,0.45 0.22,0.96 0.24,1.45 0.01,0.23 0.03,0.46 0.06,0.68 0.14,0.88 0.48,2.94 -1.01,3.9 -0.19,0.12 -0.4,0.21 -0.61,0.3 -0.15,0.07 -0.31,0.14 -0.46,0.23 -0.27,0.17 -0.28,0.22 -0.33,0.43 -0.05,0.17 -0.1,0.41 -0.27,0.7 -0.49,0.87 -1.23,1.11 -1.88,1.32 -0.2,0.06 -0.4,0.12 -0.61,0.21 -0.46,0.19 -0.87,0.55 -1.3,0.94 -0.65,0.57 -1.39,1.23 -2.46,1.33 -0.51,0.05 -0.88,-0.12 -1.21,-0.27l-0.18 -0.08c-0.28,-0.13 -0.61,-0.2 -0.95,-0.29 -0.26,-0.06 -0.5,-0.12 -0.74,-0.19 -0.28,-0.09 -0.56,-0.15 -0.83,-0.21 -0.16,-0.03 -0.31,-0.06 -0.46,-0.1 -0.47,-0.12 -0.86,-0.33 -1.24,-0.53 -0.19,-0.11 -0.38,-0.22 -0.58,-0.3l-0.21 -0.09c-0.46,-0.21 -0.93,-0.42 -1.37,-0.39 -0.47,0.04 -0.87,0.19 -1.34,0.37 -0.42,0.16 -0.77,0.24 -1.1,0.31 -0.2,0.04 -0.4,0.08 -0.58,0.14 -0.37,0.1 -0.77,0.37 -1.15,0.63l-0.3 0.2c-0.45,0.29 -0.87,0.62 -1.31,0.97 -0.29,0.24 -0.59,0.47 -0.89,0.69 -0.48,0.36 -1.14,0.84 -1.91,0.63 -0.24,-0.07 -0.41,-0.22 -0.53,-0.32l-0.1 -0.09c-0.11,0 -0.25,-0.01 -0.41,-0.1 -0.2,-0.11 -0.38,-0.25 -0.54,-0.39 -0.14,-0.12 -0.29,-0.24 -0.41,-0.29 -0.23,-0.09 -0.6,0.14 -1.12,0.67 -0.15,0.16 -0.29,0.31 -0.42,0.46 -0.36,0.4 -0.73,0.82 -1.26,1.18 -0.15,0.11 -0.29,0.22 -0.43,0.34 -0.37,0.31 -0.78,0.66 -1.31,0.8 -0.72,0.19 -1.27,0.27 -1.62,0.26 -0.36,-0.02 -0.65,-0.16 -0.88,-0.28 -0.16,-0.09 -0.31,-0.16 -0.43,-0.17 -0.17,0 -0.34,0.08 -0.6,0.23 -0.18,0.11 -0.38,0.22 -0.61,0.3 -0.48,0.16 -0.93,0.2 -1.37,0.24 -0.64,0.06 -1.19,0.12 -1.7,0.51 -0.4,0.3 -0.71,0.74 -1.03,1.2 -0.18,0.26 -0.37,0.52 -0.56,0.75 -0.4,0.48 -0.56,0.84 -0.75,1.4 -0.13,0.41 -0.3,0.79 -0.47,1.18 -0.14,0.3 -0.27,0.61 -0.39,0.92l-0.09 0.27c-0.26,0.74 -0.44,1.22 -1.2,1.92 -0.56,0.5 -1.12,0.99 -1.7,1.48 -0.12,0.1 -0.27,0.22 -0.43,0.35 -0.3,0.23 -0.71,0.56 -0.93,0.81 0.01,0.15 0.05,0.29 0.1,0.45 0.07,0.25 0.16,0.55 0.13,0.92 -0.02,0.25 -0.09,0.46 -0.15,0.65 -0.06,0.18 -0.12,0.34 -0.11,0.47 0,0.08 0.04,0.18 0.09,0.3l0.05 0.12c0.19,0.08 0.33,0.27 0.33,0.49 0,0.54 0.05,1.07 0.11,1.64l0.01 0.15c0.15,-0.09 0.31,-0.17 0.45,-0.27 0.6,-0.41 1.16,-0.93 1.76,-1.62l0.11 -0.13c0.49,-0.57 1.1,-1.28 2.06,-1.31 0.5,-0.01 1.01,0 1.51,0 0.35,0 0.7,0.01 1.04,0.01 0.98,-0.01 1.89,-0.02 2.7,0.59 0.43,0.31 0.88,0.59 1.33,0.88 0.49,0.3 1,0.62 1.48,0.99 0.39,0.29 0.84,0.34 1.41,0.4 0.23,0.03 0.46,0.05 0.71,0.1 0.13,0.02 0.26,0.05 0.37,0.07 0.43,0.1 0.61,0.14 1.01,-0.02 0.16,-0.06 0.34,-0.14 0.52,-0.23 0.49,-0.23 1.04,-0.48 1.57,-0.52 1.14,-0.1 2.89,1.13 3.46,1.82 0.73,0.89 0.46,1.64 0.23,2.31 -0.04,0.11 -0.08,0.23 -0.12,0.36 -0.19,0.61 -0.18,1.11 -0.06,1.24 0.05,0.05 0.19,0.06 0.37,0.03 0.23,-0.05 0.48,-0.25 0.73,-0.45l0.27 -0.2c0.35,-0.19 0.6,-0.4 0.8,-0.65 0.04,-0.25 0.13,-0.48 0.26,-0.69 0.27,-0.33 0.61,-0.44 0.88,-0.53l0.26 -0.09 0.31 -0.2c0.14,-0.09 0.28,-0.19 0.42,-0.26 0.72,-0.37 1.42,-0.25 2.03,-0.15l0.31 0.06c0.41,0.06 0.81,0.06 1.25,0.05l0.43 0c0.53,-0.01 1.09,-0.05 1.66,-0.11 0.58,-0.06 1.15,-0.11 1.78,-0.11l0.05 0c1.1,0 2.27,-0.23 3.36,-0.48 0.77,-0.17 1.49,-0.71 2.18,-1.24 0.28,-0.2 0.54,-0.4 0.82,-0.59 1.14,-0.76 2.85,-1.27 4.1,-0.64 0.34,0.17 0.69,0.54 1.07,0.98l0.17 0.18c0.16,0.18 0.31,0.36 0.46,0.55 0.11,0.14 0.22,0.28 0.34,0.41 0.5,0.57 0.86,0.97 0.97,1.84 0.1,0.81 0.15,1.5 0.14,2.16 0,0.36 0.01,0.74 0.03,1.13 0.03,0.84 0.06,1.71 -0.09,2.53 -0.17,0.89 -0.2,1.61 -0.12,2.43 0.02,0.17 0.05,0.35 0.08,0.54 0.07,0.41 0.14,0.86 0.12,1.28 -0.02,0.24 -0.08,0.44 -0.14,0.62 -0.04,0.12 -0.08,0.23 -0.09,0.33 -0.03,0.25 0.11,0.52 0.28,0.82 0.16,0.31 0.35,0.66 0.4,1.07 0.03,0.23 0.03,0.45 0.02,0.68 -0.01,0.29 -0.01,0.55 0.07,0.78 0.12,0.36 0.5,0.51 1.16,0.65 0.32,0.08 0.68,0.04 1.06,0.01 0.43,-0.04 0.87,-0.08 1.32,0.01 0.37,0.08 1.03,0.34 1.25,0.44 0.92,0.41 1.06,1.26 1.13,2.02 0.12,1.43 -0.18,2.53 -0.53,3.8l-0.07 0.24c-0.03,0.14 -0.07,0.27 -0.12,0.4 -0.12,0.41 -0.23,0.73 -0.16,1.08 0.08,0.47 0.42,0.95 0.74,1.41 0.2,0.28 0.39,0.55 0.54,0.83 0.59,1.09 0.68,2.26 0.77,3.4 0.02,0.35 0.05,0.71 0.09,1.06l0.02 0.11c0.13,1.07 0.29,2.4 0.71,3.31 1.13,2.47 4.52,2.15 6.34,1.56 0.32,-0.09 0.63,-0.16 0.95,-0.23 0.22,-0.05 0.44,-0.1 0.66,-0.16 0.48,-0.13 0.68,-0.32 1.11,-0.75 1.68,-1.63 4.09,-2.17 5.38,-2.35 0.38,-0.06 0.8,-0.08 1.23,-0.1 0.8,-0.04 1.62,-0.08 2.22,-0.37 0.17,-0.08 0.32,-0.21 0.49,-0.36 0.16,-0.15 0.34,-0.3 0.54,-0.42 0.39,-0.24 0.86,-0.46 1.35,-0.64 0.13,-0.17 0.35,-0.25 0.55,-0.19 0.36,-0.1 0.72,-0.2 1.06,-0.26 0.49,-0.09 1.04,-0.14 1.61,-0.19z"/>
    <path class="fil0" d="M85.86 170.89c-0.14,0.26 -0.26,0.49 -0.38,0.72 -0.24,0.5 -0.48,0.97 -0.9,1.56 -0.09,0.12 -0.22,0.2 -0.36,0.22 -0.73,0.09 -0.88,0.19 -1.16,0.39 -0.2,0.13 -0.47,0.32 -0.95,0.54 -0.61,0.29 -1.29,0.37 -1.88,0.44 -0.53,0.06 -0.57,0.09 -0.78,0.25 -0.12,0.1 -0.27,0.21 -0.52,0.36 -1.18,0.72 -2.39,1.45 -3.69,1.86 -0.66,0.21 -1.48,0.63 -2.15,0.96l-0.29 0.15c-0.3,0.15 -0.56,0.29 -0.81,0.43 -0.73,0.4 -1.35,0.74 -2.37,1 -1.28,0.33 -2.29,0.98 -3.36,1.67 -0.16,0.11 -0.33,0.2 -0.5,0.3 -0.38,0.22 -0.78,0.44 -1.01,0.73 -0.23,0.29 -0.41,0.81 -0.59,1.32 -0.12,0.35 -0.24,0.69 -0.37,0.97 -0.26,0.52 -0.35,0.99 -0.46,1.5 -0.13,0.67 -0.27,1.36 -0.78,2.08 -0.24,0.33 -0.37,0.74 -0.52,1.17 -0.16,0.45 -0.32,0.92 -0.61,1.35 -0.21,0.3 -0.45,0.52 -0.69,0.73 -0.14,0.12 -0.27,0.23 -0.39,0.37l-0.25 0.32c-0.17,0.23 -0.36,0.5 -0.72,0.72 -0.23,0.14 -0.46,0.2 -0.66,0.26 -0.2,0.05 -0.35,0.1 -0.49,0.2 -0.29,0.22 -0.6,0.41 -0.91,0.6 -0.46,0.28 -0.89,0.54 -1.2,0.9 -0.19,0.22 -0.36,0.46 -0.53,0.71 -0.25,0.35 -0.5,0.72 -0.84,1.05l-0.28 0.25c-0.15,0.13 -0.25,0.22 -0.37,0.41 -0.2,0.31 -0.37,0.72 -0.53,1.11 -0.13,0.3 -0.26,0.61 -0.41,0.88 -0.1,0.2 -0.2,0.51 -0.3,0.81 -0.15,0.44 -0.3,0.9 -0.52,1.22 -0.25,0.37 -0.36,0.45 -0.64,0.61l-0.26 0.15c-0.39,0.16 -0.64,0.33 -0.86,0.57l-0.14 0.11c0.04,0.14 0.05,0.24 -0.03,0.36l-0.33 0.54 -0.1 0.12c-0.41,0.35 -0.85,0.66 -1.32,0.92l0 0.22c0,0.32 0.01,0.8 -0.41,1.22 -0.24,0.25 -0.51,0.33 -0.71,0.39 -0.13,0.04 -0.21,0.07 -0.28,0.12 -0.47,0.36 -0.62,1.05 -0.67,1.42 -0.03,0.23 -0.21,0.42 -0.43,0.46 -0.54,0.09 -0.59,0.1 -0.93,0.46 -0.12,0.47 -0.47,0.79 -0.97,0.9 -0.15,0.01 -0.28,0.02 -0.39,0.04l-0.05 0.25c-0.05,0.22 -0.24,0.39 -0.46,0.41 -0.47,0.06 -0.55,0.17 -0.78,0.48 -0.16,0.22 -0.36,0.49 -0.71,0.77 -0.14,0.11 -0.26,0.18 -0.35,0.24l-0.07 0.05c0.01,0.01 0,0.08 0,0.24 -0.02,0.53 0.25,1.18 0.5,1.62 0.09,0.15 0.86,1.44 1.82,1 0.71,-0.33 0.82,-0.87 0.98,-1.89 0.03,-0.16 0.05,-0.33 0.08,-0.5l0.06 -0.34c0.14,-0.85 0.29,-1.79 1.97,-1.64 0.88,0.09 1.71,0.54 2.51,0.98 0.4,0.21 0.77,0.42 1.14,0.57 0.13,0.05 0.26,0.09 0.39,0.13 0.33,0.1 0.71,0.21 1.04,0.53 0.23,0.21 0.55,0.67 0.83,1.09 0.34,0.49 0.4,0.94 0.45,1.34 0.03,0.24 0.06,0.47 0.16,0.69 0.25,0.6 0.91,1.14 1.5,1.61l0.29 0.23c0.12,0.09 0.24,0.18 0.36,0.27 0.37,0.28 0.74,0.56 1.06,0.98 0.14,0.19 0.25,0.38 0.35,0.57 0.19,0.33 0.33,0.58 0.65,0.74 0.24,0.13 0.48,0.25 0.72,0.36 1.3,0.63 2.65,1.29 2.88,3.33 0.05,0.43 0.13,1.51 -0.06,2.43 -0.03,0.18 -0.1,0.32 -0.16,0.43 0.27,0.01 0.66,-0.21 0.84,-0.3 0.13,-0.06 0.25,-0.12 0.35,-0.17 0.86,-0.36 1.32,-0.94 1.92,-1.67 0.19,-0.23 0.38,-0.47 0.6,-0.72l0.1 -0.12c0.97,-1.12 2.09,-2.26 3,-2.26l0.02 0c0.31,0 0.58,0.13 0.77,0.38 0.15,0.18 0.15,0.35 0.15,0.93 0,0.2 0,0.4 0.01,0.48 0.2,0.79 0.63,1.3 1.13,1.91 0.19,0.22 0.39,0.45 0.57,0.7 0.35,0.47 0.62,0.96 0.88,1.43 0.45,0.8 0.86,1.56 1.62,2.08 0.99,0.67 2.29,1.53 3.66,2.19 0.46,0.22 0.87,0.5 1.27,0.77 0.47,0.32 0.91,0.62 1.41,0.81l0.29 0.07c0.28,0.05 0.62,0.12 0.91,0.38 0.37,0.32 0.56,0.76 0.72,1.15 0.1,0.25 0.2,0.48 0.33,0.64 0.24,0.32 0.47,0.57 0.8,0.75 0.18,0.11 0.45,0.17 0.74,0.23 0.4,0.09 0.81,0.18 1.15,0.42 0.41,0.3 0.67,0.73 0.91,1.14 0.2,0.34 0.39,0.66 0.64,0.87 0.27,0.23 0.59,0.42 0.92,0.62 0.64,0.38 1.3,0.78 1.74,1.51 0.35,0.58 0.44,1.18 0.53,1.76l0.05 0.35c0.07,0.38 0.16,0.75 0.25,1.12 0.09,0.37 0.18,0.75 0.24,1.13 0.07,0.39 0.05,0.76 0.04,1.11 -0.01,0.13 -0.02,0.25 -0.02,0.37 0.46,0.06 0.97,0.03 1.47,0.01 0.24,-0.01 0.48,-0.02 0.72,-0.03 0.59,0 0.99,0.1 1.43,0.22l0.25 0.07c0.91,0.23 1.44,0.02 2.1,-0.85 0.52,-0.68 0.79,-1.12 1.14,-1.87 0.17,-0.36 0.39,-0.69 0.6,-1.01 0.14,-0.21 0.28,-0.42 0.4,-0.63 0.63,-1.36 0.95,-1.66 1.21,-1.77 0.31,-0.14 0.61,-0.21 0.91,-0.21 1.11,0 2.15,0.96 3.08,2.87 0.42,0.85 0.5,1.87 0.22,2.87 -0.17,0.58 -0.33,0.85 -0.59,1.3l-0.19 0.32c-0.08,0.14 -0.16,0.35 -0.25,0.56 -0.19,0.45 -0.38,0.92 -0.64,1.19 -0.58,0.58 -1.47,0.77 -2.2,0.92 -0.13,0.03 -0.27,0.06 -0.39,0.09 -0.5,0.12 -0.98,0.29 -1.49,0.47 -0.36,0.12 -0.73,0.25 -1.09,0.36 -1.94,0.58 -2.61,2.91 -3.16,4.78 -0.03,0.13 -0.04,0.24 -0.06,0.34 -0.02,0.19 -0.05,0.41 -0.15,0.67 -0.16,0.4 -0.39,0.73 -0.62,1.06 -0.21,0.29 -0.4,0.56 -0.51,0.86 -0.18,0.47 -0.29,1.03 -0.39,1.58l-0.11 0.52c-0.03,0.17 -0.07,0.33 -0.11,0.5 -0.14,0.64 -0.28,1.25 -0.2,1.84l0.04 0.25 0.25 -0.03c1.06,-0.17 2.61,-0.81 3.64,-1.37 1.24,-0.66 1.63,-1.45 2.28,-2.76 0.32,-0.65 0.56,-1.24 0.81,-1.87l0.3 -0.73c0.15,-0.36 0.34,-0.67 0.52,-0.97 0.12,-0.21 0.25,-0.41 0.35,-0.63 0.12,-0.24 0.21,-0.5 0.29,-0.76 0.1,-0.33 0.21,-0.67 0.39,-1 0.13,-0.24 0.28,-0.46 0.43,-0.68 0.15,-0.22 0.3,-0.43 0.42,-0.67 0.09,-0.19 0.14,-0.4 0.19,-0.63 0.07,-0.25 0.13,-0.51 0.26,-0.78 0.09,-0.21 0.21,-0.37 0.32,-0.51l0.21 -0.31c0.06,-0.13 0.09,-0.32 0.12,-0.51 0.05,-0.29 0.11,-0.62 0.3,-0.95 0.11,-0.19 0.26,-0.34 0.39,-0.47l0.24 -0.27c0.06,-0.11 0.09,-0.23 0.14,-0.38 0.06,-0.21 0.12,-0.44 0.28,-0.68 0.4,-0.65 0.86,-1.33 1.25,-1.86 0.18,-0.25 0.4,-0.49 0.62,-0.73 0.23,-0.25 0.44,-0.49 0.59,-0.71 0.08,-0.11 0.09,-0.18 0.12,-0.3 0.02,-0.11 0.04,-0.23 0.1,-0.38 -0.02,-0.42 0.21,-0.74 0.62,-0.85l0.11 -0.1c0.21,-0.46 0.32,-1.05 0.23,-1.26l-0.12 -0.11c-0.16,-0.13 -0.39,-0.33 -0.49,-0.66 -0.13,-0.39 -0.04,-0.88 0.07,-1.43l0.04 -0.18c0.17,-0.87 0.48,-1.43 0.83,-2.07 0.09,-0.16 0.18,-0.33 0.27,-0.5 0.25,-0.48 0.29,-0.91 0.34,-1.42 0.03,-0.28 0.06,-0.57 0.12,-0.88 0.2,-0.99 0.63,-2.02 1.16,-2.82 0.23,-0.33 0.5,-0.63 0.76,-0.93 0.32,-0.34 0.61,-0.67 0.79,-1 0.1,-0.18 0.17,-0.39 0.24,-0.61 0.09,-0.26 0.17,-0.53 0.33,-0.81 0.24,-0.44 0.51,-0.85 0.78,-1.27 0.3,-0.48 0.62,-0.97 0.89,-1.49 0.55,-1.02 1.33,-1.53 2.09,-2.01 0.22,-0.14 0.44,-0.29 0.67,-0.45 0.77,-0.54 1.78,-1.72 2.05,-2.66 0.64,-2.2 1.53,-4.68 3.28,-6.39 0.75,-0.72 1.74,-0.79 2.62,-0.84 0.34,-0.03 0.68,-0.05 1.01,-0.11 1.38,-0.26 3.43,-0.26 4.68,0.59 0.18,0.12 0.26,0.33 0.23,0.54 -0.5,2.62 -1.98,5.24 -4.51,7.96 0.36,-0.02 0.8,-0.01 1.34,0 0.52,0.02 1.39,0.05 1.59,-0.05 0.11,-0.1 0.22,-0.22 0.34,-0.35 0.16,-0.18 0.33,-0.36 0.52,-0.52 0.16,-0.12 0.35,-0.22 0.54,-0.32 0.16,-0.08 0.34,-0.18 0.41,-0.26 0.12,-0.14 0.24,-0.46 0.35,-0.74 0.1,-0.27 0.21,-0.56 0.36,-0.8 0.54,-0.9 0.9,-1.73 1.19,-2.76l0.06 -0.22c0.12,-0.4 0.17,-0.58 0.11,-0.97 -0.08,-0.49 -0.21,-1.05 -0.29,-1.18l-0.13 -0.12c-0.14,-0.15 -0.28,-0.28 -0.34,-0.46 -0.21,-0.55 -0.18,-1.28 0.1,-2.22 0.15,-0.52 0.3,-0.69 0.58,-0.88 0.08,-0.05 0.16,-0.11 0.29,-0.25 0.13,-0.15 0.18,-0.35 0.24,-0.6 0.06,-0.21 0.11,-0.43 0.21,-0.64 0.22,-0.5 0.59,-0.86 0.91,-1.17 0.24,-0.25 0.48,-0.48 0.58,-0.71 0.1,-0.23 0.14,-0.51 0.19,-0.82 0.05,-0.38 0.12,-0.82 0.32,-1.23 0.14,-0.31 0.33,-0.57 0.51,-0.82 0.14,-0.21 0.29,-0.42 0.41,-0.65l0.1 -0.2c0.22,-0.43 0.38,-0.77 0.82,-1.21 0.27,-0.26 0.47,-0.49 0.65,-0.71l-0.07 -0.06c-0.13,-0.13 -0.27,-0.25 -0.43,-0.35 -0.24,-0.15 -0.59,-0.19 -0.96,-0.24 -0.15,-0.02 -0.29,-0.05 -0.43,-0.07 -0.3,-0.06 -0.54,-0.17 -0.75,-0.28l-0.33 -0.15 -0.1 0.01c-0.18,0 -0.41,0 -0.63,-0.13 -0.75,-0.46 -0.5,-1.27 -0.34,-1.7 -0.69,0.12 -1.34,0.13 -1.82,-0.17 -0.28,-0.17 -0.46,-0.43 -0.54,-0.76 -0.14,-0.64 -0.05,-1.62 0.22,-2.17 0.22,-0.45 0.54,-0.81 0.85,-1.15 0.22,-0.23 0.42,-0.45 0.57,-0.68 0.4,-0.64 0.9,-1.21 1.37,-1.77 0.41,-0.49 0.8,-0.94 1.14,-1.43 0.15,-0.23 0.25,-0.52 0.36,-0.82 0.07,-0.2 0.13,-0.4 0.22,-0.59 0.11,-0.26 0.28,-0.49 0.44,-0.72 0.12,-0.17 0.24,-0.33 0.32,-0.49 -0.21,-0.02 -0.55,-0.01 -1,0.02l-0.21 0.02c-0.52,0.03 -1.05,0.19 -1.6,0.36 -0.4,0.12 -0.79,0.24 -1.19,0.32 -1.45,0.29 -2.83,0.49 -3.98,0.64 -0.19,0.03 -0.42,0.12 -0.67,0.21 -0.49,0.19 -1.04,0.4 -1.57,0.24 -0.2,-0.06 -0.35,-0.22 -0.38,-0.43 -0.02,-0.15 -0.02,-0.31 -0.01,-0.46 0.01,-0.14 0.01,-0.25 -0.02,-0.33 -0.04,-0.12 -0.09,-0.21 -0.14,-0.3 -0.1,-0.17 -0.23,-0.38 -0.29,-0.71l-0.03 -0.18c-0.13,-0.69 -0.21,-1.06 -0.68,-1.32 -0.35,-0.19 -0.77,-0.29 -1.22,-0.4 -0.62,-0.15 -1.26,-0.3 -1.78,-0.73l-0.15 -0.12c-0.49,-0.39 -1.16,-0.92 -1.28,-1.66 -0.05,-0.26 -0.01,-0.5 0.01,-0.72 0.02,-0.16 0.04,-0.31 0.03,-0.41 -0.03,-0.13 -0.11,-0.28 -0.2,-0.44 -0.08,-0.14 -0.16,-0.29 -0.22,-0.43 -0.28,-0.73 -0.51,-0.91 -1.28,-1.25 -0.13,-0.06 -0.24,-0.12 -0.35,-0.17 -0.32,-0.15 -0.56,-0.27 -0.94,-0.35 -0.16,-0.03 -0.34,-0.06 -0.52,-0.08 -0.93,-0.16 -2,-0.33 -2.74,-0.93 -0.52,-0.41 -0.8,-0.92 -1.06,-1.42 -0.12,-0.21 -0.24,-0.43 -0.38,-0.63 -0.46,-0.68 -1.05,-1.45 -1.91,-1.98 -1.24,-0.76 -2.71,-1.16 -4.13,-1.54 -0.35,-0.1 -0.7,-0.19 -1.04,-0.29 -0.56,-0.16 -1.03,-0.38 -1.47,-0.59 -0.31,-0.15 -0.61,-0.3 -0.95,-0.42 -0.14,-0.05 -0.29,-0.12 -0.44,-0.18 -0.18,-0.09 -0.37,-0.18 -0.55,-0.22 -0.42,-0.1 -0.88,0.07 -1.37,0.25l-0.59 0.22c-1.05,0.39 -2.62,0.98 -3.57,0.26 -0.9,-0.68 -0.69,-1.62 -0.55,-2.32l0.05 -0.2c-0.28,0.12 -0.54,0.36 -0.67,0.49 -0.2,0.2 -0.52,0.2 -0.73,0.02l-0.16 -0.15c-0.2,-0.19 -0.59,-0.56 -0.84,-0.61l-0.15 0.17c-0.34,0.32 -0.7,0.57 -1.09,0.75 -0.45,0.31 -0.58,0.45 -0.62,0.5l-0.02 0.13c-0.03,0.21 -0.08,0.65 -0.65,0.87 -0.38,0.14 -0.75,0 -1.03,-0.1l-0.26 -0.08c-0.29,-0.03 -0.58,-0.05 -0.87,-0.08 -0.6,-0.06 -1.22,-0.11 -1.81,-0.12l-0.13 0.11c-0.25,0.2 -0.49,0.39 -0.61,0.62z"/>
    <path class="fil0" d="M124.21 222.93l-0.27 -0.2 -0.1 -0.1c-0.14,0.14 -0.29,0.29 -0.44,0.43 -0.62,0.47 -1.14,0.98 -1.59,1.53 -0.32,0.65 -0.72,1.25 -1.19,1.8l-0.09 0.08c-0.5,0.37 -0.97,0.78 -1.4,1.24l-0.5 1.13 -0.08 0.12c-0.43,0.53 -0.93,1.05 -1.41,1.57 -0.24,0.26 -0.48,0.51 -0.71,0.77 -0.36,0.29 -0.52,0.58 -0.55,0.96 0.08,0.67 -0.25,1.18 -0.88,1.36 -0.28,0.08 -0.43,0.24 -0.5,0.54 -0.19,0.69 -0.57,1.23 -1.15,1.63 -0.44,0.53 -0.6,0.94 -0.55,1.11l0.09 0.18c0.18,0.06 0.68,-0.16 1.08,-0.5 0.42,-0.55 0.96,-1.15 1.53,-1.71l0.16 -0.1c0.52,-0.24 0.99,-0.58 1.38,-1.02 0.32,-0.58 0.78,-1.19 1.31,-1.73 0.61,-0.45 1.1,-0.92 1.51,-1.44 0.06,-0.12 0.14,-0.32 0.21,-0.52 0.12,-0.31 0.25,-0.66 0.5,-1 0.13,-0.37 0.38,-0.64 0.75,-0.79 0.22,-0.19 0.32,-0.4 0.32,-0.7l0.02 -0.12c0.16,-0.64 0.57,-1.12 1.19,-1.4 0.16,-0.09 0.25,-0.22 0.27,-0.44 0.01,-0.13 0.06,-0.25 0.16,-0.34 0.3,-0.29 0.57,-0.45 0.77,-0.56 0.3,-0.17 0.4,-0.23 0.51,-0.7 0.18,-0.7 0.18,-0.7 -0.35,-1.08z"/>
    <path class="fil2" d="M178.25 154.93l1.25 0 0 -1.79c0.24,0.03 0.51,0.05 0.77,0.05 1.2,0 1.63,-0.36 1.63,-1.68 0,-1.32 -0.43,-1.68 -1.8,-1.68 -0.88,0 -1.27,0.01 -1.85,0.07l0 5.03zm1.25 -2.74l0 -1.36 0.57 0c0.45,0 0.58,0.14 0.58,0.68 0,0.54 -0.13,0.68 -0.58,0.68l-0.57 0zm2.99 0.06c0.55,-0.04 1.08,-0.05 1.41,-0.05 0.35,0 0.46,0.11 0.46,0.41l0 0.09 -1.1 0c-0.65,0 -1.05,0.35 -1.05,0.93l0 0.36c0,0.68 0.49,1.04 1.11,1.04 0.57,0 0.94,-0.32 1.18,-0.63l0.11 0.53 0.96 0 0 -2.31c0,-1.08 -0.49,-1.41 -1.38,-1.41 -0.49,0 -1.32,0.08 -1.81,0.18l0.11 0.86zm0.9 1.43c0,-0.17 0.08,-0.28 0.28,-0.29l0.69 0 0 0.46c-0.22,0.15 -0.46,0.24 -0.64,0.24 -0.23,0 -0.33,-0.1 -0.33,-0.29l0 -0.12zm5.38 -2.47l-0.18 0c-0.43,0 -0.88,0.21 -1.32,0.63l-0.1 -0.53 -0.95 0 0 3.62 1.21 0 0 -2.35c0.41,-0.11 0.67,-0.16 0.91,-0.16l0.32 0 0.11 -1.21zm0.48 1.04c0.55,-0.04 1.08,-0.05 1.42,-0.05 0.34,0 0.45,0.11 0.46,0.41l0 0.09 -1.1 0c-0.66,0 -1.06,0.35 -1.06,0.93l0 0.36c0,0.68 0.49,1.04 1.11,1.04 0.57,0 0.95,-0.32 1.18,-0.63l0.11 0.53 0.96 0 0 -2.31c0,-1.08 -0.48,-1.41 -1.38,-1.41 -0.48,0 -1.31,0.08 -1.81,0.18l0.11 0.86zm0.91 1.43c0,-0.17 0.07,-0.28 0.27,-0.29l0.7 0 0 0.46c-0.22,0.15 -0.46,0.24 -0.65,0.24 -0.23,0 -0.32,-0.1 -0.32,-0.29l0 -0.12zm3.79 -2.37l-0.97 0 0 3.62 1.22 0 0 -2.41c0.31,-0.14 0.51,-0.19 0.71,-0.19 0.2,0 0.27,0.07 0.27,0.31l0 2.29 1.21 0 0 -2.71c0,-0.66 -0.33,-1.01 -0.96,-1.01 -0.45,0 -0.93,0.22 -1.38,0.63l-0.1 -0.53zm3.23 0.94c0.55,-0.04 1.08,-0.05 1.42,-0.05 0.34,0 0.45,0.11 0.46,0.41l0 0.09 -1.1 0c-0.66,0 -1.06,0.35 -1.06,0.93l0 0.36c0,0.68 0.49,1.04 1.11,1.04 0.57,0 0.95,-0.32 1.18,-0.63l0.11 0.53 0.96 0 0 -2.31c0,-1.08 -0.49,-1.41 -1.38,-1.41 -0.48,0 -1.32,0.08 -1.81,0.18l0.11 0.86zm0.9 1.43c0,-0.17 0.08,-0.28 0.28,-0.29l0.7 0 0 0.46c-0.22,0.15 -0.46,0.24 -0.65,0.24 -0.23,0 -0.33,-0.1 -0.33,-0.29l0 -0.12zm6.33 -1.85l0.06 -0.52 -1.09 0c-0.24,-0.07 -0.54,-0.1 -0.92,-0.1 -1.21,0 -1.65,0.32 -1.65,1.16 0,0.48 0.16,0.8 0.53,0.97 -0.34,0.2 -0.46,0.78 -0.15,1.12 -0.4,0.19 -0.52,0.42 -0.52,0.77 0,0.77 0.34,1.06 1.83,1.06 1.31,0 1.83,-0.21 1.83,-1.2 0,-0.69 -0.28,-1.05 -1.01,-1.11l-1.2 -0.12c-0.25,-0.03 -0.28,-0.25 -0.2,-0.38 0.16,0.02 0.34,0.03 0.54,0.03 1.21,0 1.63,-0.31 1.63,-1.15 0,-0.18 -0.02,-0.33 -0.06,-0.47l0.38 -0.06zm-1.95 0.92c-0.4,0 -0.52,-0.09 -0.52,-0.39 0,-0.3 0.12,-0.38 0.52,-0.38 0.39,0 0.5,0.08 0.5,0.38 0,0.3 -0.11,0.39 -0.5,0.39zm0.21 2.05c0.38,0.03 0.53,0.05 0.53,0.27 0,0.23 -0.14,0.28 -0.72,0.28 -0.54,0 -0.67,-0.04 -0.67,-0.31 0,-0.14 0.05,-0.22 0.16,-0.31l0.7 0.07zm5.53 -3.49l-1.22 0 0 2.43c-0.27,0.13 -0.45,0.18 -0.64,0.18 -0.21,0 -0.29,-0.09 -0.29,-0.31l0 -2.3 -1.21 0 0 2.71c0,0.66 0.33,1.01 0.96,1.01 0.48,0 0.9,-0.2 1.34,-0.62l0.1 0.52 0.96 0 0 -3.62zm2.01 -0.28l1.61 -0.78 -0.49 -0.86 -1.46 1.08 0.34 0.56zm-1.2 1.22c0.55,-0.04 1.08,-0.05 1.41,-0.05 0.35,0 0.46,0.11 0.46,0.41l0 0.09 -1.09 0c-0.66,0 -1.06,0.35 -1.06,0.93l0 0.36c0,0.68 0.49,1.04 1.11,1.04 0.57,0 0.94,-0.32 1.18,-0.63l0.11 0.53 0.96 0 0 -2.31c0,-1.08 -0.49,-1.41 -1.38,-1.41 -0.48,0 -1.32,0.08 -1.81,0.18l0.11 0.86zm0.9 1.43c0,-0.17 0.08,-0.28 0.28,-0.29l0.69 0 0 0.46c-0.22,0.15 -0.46,0.24 -0.64,0.24 -0.23,0 -0.33,-0.1 -0.33,-0.29l0 -0.12z"/>
    <path class="fil2" d="M180.78 145.92l0.27 1.19 1.28 0 -1.26 -4.67c-0.05,-0.21 -0.22,-0.35 -0.42,-0.35l-1.16 0c-0.2,0 -0.37,0.14 -0.42,0.35l-1.26 4.67 1.28 0 0.27 -1.19 1.42 0zm-0.24 -0.99l-0.94 0 0.29 -1.29c0.03,-0.17 0.07,-0.36 0.09,-0.53l0.18 0c0.02,0.17 0.06,0.36 0.09,0.53l0.29 1.29zm3.06 -1.44l-0.97 0 0 3.62 1.21 0 0 -2.41c0.32,-0.14 0.52,-0.19 0.72,-0.19 0.2,0 0.27,0.08 0.27,0.31l0 2.29 1.21 0 0 -2.71c0,-0.66 -0.33,-1.01 -0.96,-1.01 -0.45,0 -0.94,0.22 -1.38,0.64l-0.1 -0.54zm4.64 0.83l0.85 0 0 -0.83 -0.85 0 0 -0.97 -1.22 0 0 0.98 -0.57 0.03 0 0.79 0.58 0 0 1.86c0,0.65 0.38,1.03 1,1.03 0.27,0 0.77,-0.05 1.04,-0.17l-0.13 -0.87 -0.39 0c-0.23,0 -0.31,-0.08 -0.31,-0.32l0 -1.53zm2.95 -0.93c-1.29,0 -1.78,0.52 -1.78,1.92 0,1.39 0.49,1.89 1.78,1.89 1.31,0 1.79,-0.5 1.79,-1.89 0,-1.4 -0.48,-1.92 -1.79,-1.92zm0 0.93c0.41,0 0.52,0.19 0.52,0.99 0,0.79 -0.11,0.97 -0.52,0.97 -0.41,0 -0.51,-0.18 -0.51,-0.97 0,-0.8 0.1,-0.99 0.51,-0.99zm3.3 -0.83l-0.96 0 0 3.62 1.21 0 0 -2.41c0.31,-0.14 0.51,-0.19 0.71,-0.19 0.2,0 0.28,0.08 0.28,0.31l0 2.29 1.21 0 0 -2.71c0,-0.66 -0.33,-1.01 -0.96,-1.01 -0.45,0 -0.94,0.22 -1.39,0.64l-0.1 -0.54zm3.47 -1.63c-0.23,0 -0.35,0.13 -0.35,0.39l0 0.38c0,0.27 0.12,0.39 0.35,0.39l0.53 0c0.23,0 0.35,-0.12 0.35,-0.39l0 -0.38c0,-0.26 -0.12,-0.39 -0.35,-0.39l-0.53 0zm0.87 5.25l0 -3.62 -1.21 0 0 3.62 1.21 0zm1.67 -3.62l-0.97 0 0 3.62 1.22 0 0 -2.41c0.31,-0.14 0.51,-0.19 0.71,-0.19 0.2,0 0.27,0.08 0.27,0.31l0 2.29 1.21 0 0 -2.71c0,-0.66 -0.33,-1.01 -0.96,-1.01 -0.45,0 -0.93,0.22 -1.38,0.64l-0.1 -0.54zm3.23 0.94c0.55,-0.03 1.08,-0.05 1.42,-0.05 0.34,0 0.45,0.11 0.46,0.42l0 0.08 -1.1 0c-0.66,0 -1.06,0.35 -1.06,0.93l0 0.36c0,0.68 0.49,1.04 1.11,1.04 0.57,0 0.95,-0.32 1.18,-0.63l0.11 0.53 0.96 0 0 -2.31c0,-1.07 -0.49,-1.41 -1.38,-1.41 -0.48,0 -1.32,0.08 -1.81,0.18l0.11 0.86zm0.9 1.43c0,-0.17 0.08,-0.28 0.28,-0.28l0.7 0 0 0.45c-0.22,0.15 -0.46,0.25 -0.65,0.25 -0.23,0 -0.33,-0.11 -0.33,-0.29l0 -0.13z"/>
    <path class="fil2" d="M173.45 164.61c0.27,0.11 0.37,0.19 0.37,0.43 0,0.25 -0.12,0.31 -0.55,0.31 -0.28,0 -0.79,-0.02 -1.61,-0.04l-0.07 0.97c0.75,0.21 1.38,0.22 1.68,0.22 1.35,0 1.8,-0.36 1.8,-1.49 0,-0.74 -0.25,-1.18 -1.01,-1.51l-0.84 -0.36c-0.33,-0.12 -0.44,-0.21 -0.44,-0.44 0,-0.28 0.13,-0.32 0.54,-0.32 0.53,0 1.14,0.02 1.53,0.02l0.08 -0.89c-0.53,-0.19 -1.13,-0.23 -1.6,-0.23 -1.3,0 -1.79,0.29 -1.79,1.44 0,0.74 0.27,1.17 0.99,1.49l0.92 0.4zm3.07 -2.34c0,-0.25 0.01,-0.34 0.21,-0.31 0.31,0.06 0.66,0.3 1.11,0.34 0.4,0.02 0.67,-0.38 0.55,-1.14l-0.5 0c0,0.24 -0.02,0.33 -0.22,0.29 -0.36,-0.07 -0.66,-0.29 -1.1,-0.33 -0.35,-0.03 -0.68,0.34 -0.55,1.15l0.5 0zm-0.78 1.45c0.55,-0.03 1.09,-0.05 1.42,-0.05 0.35,0 0.45,0.11 0.46,0.42l0 0.09 -1.1 0c-0.66,0 -1.06,0.35 -1.06,0.92l0 0.37c0,0.67 0.49,1.03 1.11,1.03 0.58,0 0.95,-0.32 1.18,-0.63l0.12 0.54 0.95 0 0 -2.31c0,-1.08 -0.48,-1.42 -1.37,-1.42 -0.49,0 -1.32,0.08 -1.81,0.18l0.1 0.86zm0.91 1.43c0,-0.17 0.08,-0.27 0.28,-0.28l0.69 0 0 0.45c-0.22,0.15 -0.46,0.25 -0.65,0.25 -0.22,0 -0.32,-0.1 -0.32,-0.29l0 -0.13zm4.48 -2.47c-1.29,0 -1.78,0.52 -1.78,1.92 0,1.39 0.49,1.89 1.78,1.89 1.31,0 1.79,-0.5 1.79,-1.89 0,-1.4 -0.48,-1.92 -1.79,-1.92zm0 0.93c0.41,0 0.52,0.19 0.52,0.99 0,0.79 -0.11,0.97 -0.52,0.97 -0.41,0 -0.51,-0.18 -0.51,-0.97 0,-0.8 0.1,-0.99 0.51,-0.99zm7 -1.19l0.06 -0.98c-0.62,-0.08 -1.46,-0.08 -2.2,-0.08 -0.62,0 -1.06,0.43 -1.06,1.09l0 3.96 1.26 0 0 -2.02 1.69 0 0 -0.95 -1.69 0 0 -0.71c0,-0.2 0.1,-0.31 0.32,-0.31l1.62 0zm2.98 0.26l-0.18 0c-0.42,0 -0.88,0.21 -1.32,0.64l-0.1 -0.54 -0.95 0 0 3.63 1.21 0 0 -2.36c0.42,-0.11 0.68,-0.15 0.92,-0.15l0.32 0 0.1 -1.22zm0.48 1.04c0.55,-0.03 1.09,-0.05 1.42,-0.05 0.35,0 0.45,0.11 0.46,0.42l0 0.09 -1.1 0c-0.66,0 -1.06,0.35 -1.06,0.92l0 0.37c0,0.67 0.49,1.03 1.11,1.03 0.58,0 0.95,-0.32 1.18,-0.63l0.12 0.54 0.95 0 0 -2.31c0,-1.08 -0.48,-1.42 -1.37,-1.42 -0.49,0 -1.32,0.08 -1.82,0.18l0.11 0.86zm0.91 1.43c0,-0.17 0.08,-0.27 0.28,-0.28l0.69 0 0 0.45c-0.22,0.15 -0.46,0.25 -0.65,0.25 -0.22,0 -0.32,-0.1 -0.32,-0.29l0 -0.13zm3.79 -2.37l-0.96 0 0 3.63 1.21 0 0 -2.42c0.31,-0.13 0.51,-0.19 0.71,-0.19 0.2,0 0.27,0.08 0.27,0.31l0 2.3 1.21 0 0 -2.72c0,-0.66 -0.33,-1.01 -0.95,-1.01 -0.46,0 -0.94,0.22 -1.39,0.64l-0.1 -0.54zm5.95 2.6c-0.4,0.05 -0.82,0.06 -1.04,0.06 -0.5,0 -0.66,-0.18 -0.66,-0.85 0,-0.67 0.16,-0.84 0.66,-0.84l0.98 0 0.12 -0.82c-0.38,-0.19 -0.93,-0.25 -1.3,-0.25 -1.27,0 -1.73,0.51 -1.73,1.91 0,1.4 0.45,1.9 1.71,1.9 0.48,0 1,-0.07 1.38,-0.27l-0.12 -0.84zm0.97 -4.23c-0.24,0 -0.36,0.13 -0.36,0.4l0 0.37c0,0.27 0.12,0.39 0.36,0.39l0.52 0c0.24,0 0.35,-0.12 0.35,-0.39l0 -0.37c0,-0.27 -0.11,-0.4 -0.35,-0.4l-0.52 0zm0.86 5.26l0 -3.63 -1.2 0 0 3.63 1.2 0zm2.18 -1.3c0.33,0.11 0.45,0.11 0.45,0.25 0,0.17 -0.12,0.19 -0.77,0.19 -0.46,0 -0.96,0 -1.16,0l-0.08 0.8c0.69,0.12 1.33,0.14 1.61,0.14 1.11,0 1.57,-0.25 1.57,-1.16 0,-0.63 -0.28,-0.9 -0.85,-1.07l-0.8 -0.24c-0.32,-0.09 -0.41,-0.09 -0.41,-0.24 0,-0.16 0.08,-0.15 0.56,-0.15 0.41,0 0.85,0 1.29,0.01l0.07 -0.81c-0.41,-0.08 -1.11,-0.14 -1.61,-0.15 -1.11,0 -1.48,0.35 -1.48,1.05 0,0.57 0.15,0.93 0.84,1.15l0.77 0.23zm4.98 0.27c-0.4,0.05 -0.83,0.06 -1.04,0.06 -0.51,0 -0.67,-0.18 -0.67,-0.85 0,-0.67 0.16,-0.84 0.67,-0.84l0.98 0 0.12 -0.82c-0.38,-0.19 -0.93,-0.25 -1.31,-0.25 -1.27,0 -1.73,0.51 -1.73,1.91 0,1.4 0.46,1.9 1.72,1.9 0.48,0 0.99,-0.07 1.37,-0.27l-0.11 -0.84zm2.22 -2.7c-1.3,0 -1.79,0.52 -1.79,1.92 0,1.39 0.49,1.89 1.79,1.89 1.3,0 1.78,-0.5 1.78,-1.89 0,-1.4 -0.48,-1.92 -1.78,-1.92zm0 0.93c0.4,0 0.51,0.19 0.51,0.99 0,0.79 -0.11,0.97 -0.51,0.97 -0.42,0 -0.52,-0.18 -0.52,-0.97 0,-0.8 0.1,-0.99 0.52,-0.99zm7.12 -2.31l-1.21 0 0 0.92c0,0.27 0.01,0.53 0.02,0.78 -0.28,-0.23 -0.64,-0.32 -1.03,-0.32 -0.82,0 -1.26,0.41 -1.26,1.87 0,1.24 0.33,1.94 1.18,1.94 0.62,0 1.01,-0.28 1.24,-0.65l0.1 0.57 0.96 0 0 -5.11zm-1.21 3.93c-0.18,0.13 -0.32,0.19 -0.58,0.19 -0.31,0 -0.45,-0.11 -0.45,-0.87 0,-0.84 0.14,-0.96 0.47,-0.96 0.24,0 0.39,0.06 0.56,0.12l0 1.52zm3.55 -2.55c-1.3,0 -1.79,0.52 -1.79,1.92 0,1.39 0.49,1.89 1.79,1.89 1.3,0 1.78,-0.5 1.78,-1.89 0,-1.4 -0.48,-1.92 -1.78,-1.92zm0 0.93c0.4,0 0.51,0.19 0.51,0.99 0,0.79 -0.11,0.97 -0.51,0.97 -0.42,0 -0.52,-0.18 -0.52,-0.97 0,-0.8 0.1,-0.99 0.52,-0.99zm5.56 1c0.27,0.11 0.37,0.19 0.37,0.43 0,0.25 -0.12,0.31 -0.56,0.31 -0.27,0 -0.78,-0.02 -1.6,-0.04l-0.07 0.97c0.75,0.21 1.37,0.22 1.68,0.22 1.35,0 1.8,-0.36 1.8,-1.49 0,-0.74 -0.26,-1.18 -1.01,-1.51l-0.84 -0.36c-0.33,-0.12 -0.44,-0.21 -0.44,-0.44 0,-0.28 0.13,-0.32 0.54,-0.32 0.53,0 1.14,0.02 1.53,0.02l0.08 -0.89c-0.53,-0.19 -1.13,-0.23 -1.6,-0.23 -1.3,0 -1.79,0.29 -1.79,1.44 0,0.74 0.27,1.17 0.99,1.49l0.92 0.4zm5.51 -1.83l-1.22 0 0 2.43c-0.28,0.13 -0.46,0.18 -0.64,0.18 -0.21,0 -0.29,-0.08 -0.29,-0.31l0 -2.3 -1.22 0 0 2.71c0,0.67 0.33,1.02 0.96,1.02 0.48,0 0.9,-0.21 1.35,-0.62l0.1 0.52 0.96 0 0 -3.63zm1.89 -1.48l-1.21 0 0 4.19c0,0.64 0.4,1.01 1.05,1.01 0.24,0 0.7,-0.05 0.89,-0.17l-0.14 -0.87 -0.24 0c-0.24,0 -0.35,-0.1 -0.35,-0.32l0 -3.84z"/>
    <path class="fil2" d="M173.36 178.95l0 -5.03 -1.23 0 0 5.03 1.23 0zm2.29 -2.79l0.85 0 0 -0.83 -0.85 0 0 -0.98 -1.22 0 0 0.99 -0.57 0.03 0 0.79 0.58 0 0 1.86c0,0.65 0.38,1.03 1,1.03 0.27,0 0.77,-0.05 1.04,-0.17l-0.13 -0.87 -0.39 0c-0.23,0 -0.31,-0.08 -0.31,-0.32l0 -1.53zm1.42 0.11c0.56,-0.03 1.09,-0.05 1.42,-0.05 0.35,0 0.45,0.11 0.46,0.42l0 0.08 -1.1 0c-0.66,0 -1.06,0.35 -1.06,0.93l0 0.36c0,0.68 0.5,1.04 1.11,1.04 0.58,0 0.95,-0.32 1.18,-0.63l0.12 0.53 0.95 0 0 -2.31c0,-1.08 -0.48,-1.41 -1.37,-1.41 -0.49,0 -1.32,0.08 -1.81,0.18l0.1 0.86zm0.91 1.43c0,-0.17 0.08,-0.28 0.28,-0.28l0.69 0 0 0.45c-0.22,0.15 -0.46,0.25 -0.65,0.25 -0.22,0 -0.32,-0.11 -0.32,-0.3l0 -0.12zm3.19 -4.05c-0.24,0 -0.35,0.13 -0.35,0.38l0 0.39c0,0.26 0.11,0.39 0.35,0.39l0.52 0c0.24,0 0.35,-0.13 0.35,-0.39l0 -0.39c0,-0.25 -0.11,-0.38 -0.35,-0.38l-0.52 0zm0.88 1.68l-1.21 0 0 3.32c0,0.42 -0.11,0.76 -0.43,1.13l0.66 0.58c0.61,-0.31 0.98,-1 0.98,-1.71l0 -3.32zm0.83 0.94c0.55,-0.03 1.08,-0.05 1.42,-0.05 0.34,0 0.45,0.11 0.45,0.42l0 0.08 -1.09 0c-0.66,0 -1.06,0.35 -1.06,0.93l0 0.36c0,0.68 0.49,1.04 1.11,1.04 0.57,0 0.94,-0.32 1.18,-0.63l0.11 0.53 0.96 0 0 -2.31c0,-1.08 -0.49,-1.41 -1.38,-1.41 -0.48,0 -1.32,0.08 -1.81,0.18l0.11 0.86zm0.9 1.43c0,-0.17 0.08,-0.28 0.28,-0.28l0.69 0 0 0.45c-0.22,0.15 -0.45,0.25 -0.64,0.25 -0.23,0 -0.33,-0.11 -0.33,-0.3l0 -0.12zm4.8 -3.43l-0.5 -0.86 -1.45 1.08 0.33 0.56 1.62 -0.78zm-0.72 4.68l0 -3.62 -1.22 0 0 3.62 1.22 0z"/>
    <path class="fil2" d="M165.8 196.86l0 -5.03 -1.24 0 0 5.03 1.24 0zm1.7 -3.62l-0.95 0 0 3.62 1.2 0 0 -2.43c0.27,-0.14 0.39,-0.17 0.54,-0.17 0.19,0 0.28,0.07 0.28,0.3l0 2.3 1.16 0 0 -2.41c0.27,-0.16 0.39,-0.19 0.55,-0.19 0.21,0 0.27,0.08 0.27,0.3l0 2.3 1.21 0 0 -2.71c0,-0.67 -0.32,-1.02 -0.94,-1.02 -0.44,0 -0.79,0.19 -1.15,0.56 -0.12,-0.37 -0.42,-0.56 -0.85,-0.56 -0.48,0 -0.84,0.22 -1.22,0.64l-0.1 -0.53zm6.13 -1.48l-1.22 0 0 4.89c0.39,0.21 1.3,0.3 1.77,0.3 1.43,0 1.71,-0.9 1.71,-1.94 0,-1.34 -0.34,-1.88 -1.24,-1.88 -0.42,0 -0.82,0.25 -1.12,0.56 0.08,-0.26 0.1,-0.56 0.1,-0.86l0 -1.07zm-0.02 2.58c0.18,-0.11 0.34,-0.19 0.55,-0.19 0.39,0 0.49,0.17 0.49,0.86 0,0.8 -0.13,0.99 -0.49,1.01 -0.14,0.01 -0.36,-0.01 -0.55,-0.04l0 -1.64zm3.21 -2.74c-0.24,0 -0.36,0.13 -0.36,0.4l0 0.38c0,0.26 0.12,0.38 0.36,0.38l0.52 0c0.24,0 0.35,-0.12 0.35,-0.38l0 -0.38c0,-0.27 -0.11,-0.4 -0.35,-0.4l-0.52 0zm0.86 5.26l0 -3.62 -1.2 0 0 3.62 1.2 0zm2.25 -2.79l0.85 0 0 -0.83 -0.85 0 0 -0.98 -1.22 0 0 0.98 -0.57 0.03 0 0.8 0.57 0 0 1.85c0,0.65 0.38,1.03 1.01,1.03 0.27,0 0.77,-0.05 1.04,-0.17l-0.14 -0.87 -0.38 0c-0.23,0 -0.31,-0.08 -0.31,-0.31l0 -1.53zm4.64 -0.83l-1.22 0 0 2.42c-0.28,0.13 -0.46,0.18 -0.64,0.18 -0.22,0 -0.29,-0.08 -0.29,-0.31l0 -2.29 -1.22 0 0 2.71c0,0.66 0.33,1.01 0.96,1.01 0.48,0 0.9,-0.2 1.35,-0.62l0.1 0.52 0.96 0 0 -3.62zm1.89 -1.48l-1.22 0 0 4.89c0.39,0.21 1.3,0.3 1.77,0.3 1.42,0 1.71,-0.9 1.71,-1.94 0,-1.34 -0.34,-1.88 -1.24,-1.88 -0.42,0 -0.82,0.25 -1.12,0.56 0.08,-0.26 0.1,-0.56 0.1,-0.86l0 -1.07zm-0.02 2.58c0.18,-0.11 0.34,-0.19 0.55,-0.19 0.39,0 0.48,0.17 0.48,0.86 0,0.8 -0.12,0.99 -0.48,1.01 -0.14,0.01 -0.36,-0.01 -0.55,-0.04l0 -1.64zm2.96 -0.16c0.56,-0.04 1.09,-0.06 1.42,-0.06 0.35,0 0.46,0.11 0.46,0.42l0 0.09 -1.1 0c-0.66,0 -1.05,0.35 -1.05,0.92l0 0.37c0,0.68 0.49,1.03 1.11,1.03 0.57,0 0.94,-0.32 1.18,-0.62l0.11 0.53 0.96 0 0 -2.31c0,-1.08 -0.49,-1.42 -1.38,-1.42 -0.49,0 -1.32,0.08 -1.81,0.19l0.1 0.86zm0.91 1.42c0,-0.16 0.08,-0.27 0.28,-0.28l0.69 0 0 0.45c-0.22,0.15 -0.46,0.25 -0.64,0.25 -0.23,0 -0.33,-0.1 -0.33,-0.29l0 -0.13z"/>
    <polygon class="fil3" points="176.34,145.28 155.16,144.71 155.16,144.01 176.34,144.58 "/>
    <path class="fil4" d="M110.47 139.96l0.69 0 0 -2.04c0.29,0.04 0.66,0.07 1.05,0.07 1.08,0 1.47,-0.36 1.47,-1.66 0,-1.28 -0.39,-1.64 -1.56,-1.64 -0.78,0 -1.13,0.01 -1.65,0.07l0 5.2zm0.69 -2.62l0 -1.99c0.26,-0.01 0.58,-0.01 0.95,-0.01 0.66,0 0.87,0.2 0.87,0.99 0,0.8 -0.21,1 -0.87,1.01l-0.95 0zm6.79 2.62l-0.45 -1.64c-0.1,-0.46 -0.36,-0.68 -0.6,-0.76l0 -0.03c0.64,-0.1 0.88,-0.51 0.88,-1.33 0,-1.17 -0.46,-1.51 -1.57,-1.51 -0.78,0 -1.14,0.01 -1.66,0.07l0 5.2 0.68 0 0 -2.15 0.98 0.01c0.3,0 0.49,0.14 0.6,0.52l0.4 1.62 0.74 0zm-2.72 -2.79l0 -1.82c0.26,-0.01 0.59,-0.01 0.96,-0.01 0.67,0 0.89,0.19 0.89,0.9 0,0.72 -0.22,0.92 -0.89,0.93l-0.96 0z"/>
    <path class="fil4" d="M132.83 172.34c0.39,0.11 0.57,0.23 0.57,0.8 0,0.65 -0.21,0.76 -0.9,0.77 -0.36,0 -0.6,-0.01 -1.46,-0.04l-0.05 0.56c0.66,0.13 1.19,0.15 1.49,0.15 1.15,0 1.62,-0.23 1.62,-1.43 0,-0.78 -0.23,-1.26 -0.96,-1.48l-0.95 -0.29c-0.4,-0.11 -0.57,-0.26 -0.57,-0.79 0,-0.7 0.25,-0.73 0.9,-0.73 0.44,0 0.96,0.03 1.36,0.04l0.04 -0.55c-0.48,-0.13 -0.98,-0.16 -1.43,-0.16 -1.08,0 -1.56,0.17 -1.56,1.38 0,0.79 0.24,1.26 0.94,1.47l0.96 0.3zm5.24 1.48c-0.39,0.07 -0.75,0.09 -1.34,0.09 -0.88,0 -1.16,-0.49 -1.16,-2.02 0,-1.54 0.28,-2.03 1.16,-2.03 0.56,0 0.83,0.02 1.24,0.06l0.07 -0.58c-0.4,-0.1 -0.71,-0.15 -1.31,-0.15 -1.39,0 -1.88,0.71 -1.88,2.7 0,1.98 0.49,2.69 1.88,2.69 0.63,0 1,-0.05 1.41,-0.18l-0.07 -0.58z"/>
    <polygon class="fil3" points="176.31,152.96 153.13,146.23 153.25,145.55 176.43,152.28 "/>
    <path class="fil0" d="M155.97 143.04c0.68,0 1.24,0.56 1.24,1.24 0,0.69 -0.56,1.24 -1.24,1.24 -0.69,0 -1.24,-0.55 -1.24,-1.24 0,-0.68 0.55,-1.24 1.24,-1.24z"/>
    <path class="fil0" d="M152.89 144.57c0.69,0 1.24,0.55 1.24,1.24 0,0.68 -0.55,1.24 -1.24,1.24 -0.68,0 -1.24,-0.56 -1.24,-1.24 0,-0.69 0.56,-1.24 1.24,-1.24z"/>
    <polygon class="fil3" points="170.08,164.53 148.9,164.38 148.9,163.68 170.08,163.83 "/>
    <path class="fil0" d="M149.71 162.86c0.69,0 1.24,0.56 1.24,1.24 0,0.69 -0.55,1.24 -1.24,1.24 -0.68,0 -1.23,-0.55 -1.23,-1.24 0,-0.68 0.55,-1.24 1.23,-1.24z"/>
    <polygon class="fil3" points="170.08,177.31 148.9,177.16 148.9,176.46 170.08,176.61 "/>
    <path class="fil0" d="M149.71 175.64c0.69,0 1.24,0.56 1.24,1.24 0,0.69 -0.55,1.24 -1.24,1.24 -0.68,0 -1.23,-0.55 -1.23,-1.24 0,-0.68 0.55,-1.24 1.23,-1.24z"/>
    <polygon class="fil3" points="162.3,194.71 141.11,194.56 141.11,193.86 162.3,194.01 "/>
    <path class="fil0" d="M141.93 193.04c0.68,0 1.24,0.56 1.24,1.24 0,0.69 -0.56,1.24 -1.24,1.24 -0.69,0 -1.24,-0.55 -1.24,-1.24 0,-0.68 0.55,-1.24 1.24,-1.24z"/>
   </g>
  </g>
 </g>
</svg>
